<mxfile host="app.diagrams.net" modified="2022-03-25T04:35:45.123Z" agent="5.0 (X11; Linux x86_64) AppleWebKit/537.36 (KHTML, like Gecko) Chrome/96.0.4664.113 Safari/537.36" etag="s_hkPL7mlIitaOnuDlSk" version="17.2.2" type="github">
  <diagram id="xR62OvESss--zE8Bf27k" name="Why we need module">
    <mxGraphModel dx="1614" dy="954" grid="1" gridSize="10" guides="1" tooltips="1" connect="1" arrows="1" fold="1" page="1" pageScale="1" pageWidth="1700" pageHeight="1100" math="0" shadow="0">
      <root>
        <mxCell id="0" />
        <mxCell id="1" parent="0" />
        <mxCell id="PchYVLzbuXAZp6eYA2In-1" value="" style="shape=image;verticalLabelPosition=bottom;labelBackgroundColor=default;verticalAlign=top;aspect=fixed;imageAspect=0;image=data:image/png,iVBORw0KGgoAAAANSUhEUgAAAY0AAAFZCAYAAABkCHPoAAAABHNCSVQICAgIfAhkiAAAABl0RVh0U29mdHdhcmUAZ25vbWUtc2NyZWVuc2hvdO8Dvz4AAAAtdEVYdENyZWF0aW9uIFRpbWUARnJpIDI1IE1hciAyMDIyIDEwOjA5OjM2IEFNICswN/8BWwkAACAASURBVHic7N13dFzlmfjx753e1HuvliW5SO6dYhubGkMgJIRACKQT8iMJJJvsbtompC0hbbPLJmwIJIQQWugYYwzYuBs3bLnI6r336fP7Y6Sx5JmRx7akGeHnc47P0cx779xH16P73LdeJS2l0IMQQggRAlW4AxBCCDF9SNIQQggRMkkaQgghQqYJdwChWLVyHakpmfT0drHpzX/idrvDHdKHmi4tk/i1GwBofeoR3DZrmCMSQkSKiK9pZGcXkJqSicfjYc+edyVhCCFEGEV00tDr9JSXLQHgxMkP6OxqD3NEQghxcYvopFFevgy9zkD/QB+HP9gX7nCEEOKiF7F9GmmpWWRn5QOwd+82XC7nlBxXZTBiLilDn5mL2hINioKrvxdbXTUDR94/a/u+JjoWc+k8dGmZqE1m3C43rr4urDWnGKw4iMfpCLhf3Opr0Wfk0H9oDwMHd2EqKcdYWIrabMHjsGNrqKX/4C5c/X3jHF3BmF+EoaAYbVwiKp0ejwfcQ/3Y6msY+GAfrgH//U0lZUQvXBnwE5NvvsvvPVtdFV1bXhn3PJyPXz30e5YsXc7LL7/Aj370Xb/ygvxC/vLXpwG44YaraW5u9NtGrVZzzTUbWLfuKgoLi4iKisLpdNDQ0MCOHdt47M+P0N3TPW4cs+eUceNHb6a8fB6JiUnY7Q6qq0/x+sZXePaZp3A6A38XZxTN5LE//x2Hw86lly4hP7+Q22+/k3nlC4iNi6WpqYl//vMZ/v73v+JyucaNYeWKtSycv4zBwQFeevVpGhtrx91eiKkSkUlDq9Eyf/5yAKqqj9Pa5n9xmAyauETi1lyH2mga+35MPJqYeAwFM+na9CLO7o6A+xuyC4hddQWo1L73VCo1qvhktPHJGAuK6XzjedyDA+PGEb10NcaCYt9rRa3BWFCMPjOXztefxdnTFXC/mEvWYcwpHPOeooDaHIVp5myMhcV0bX4Je3PDuMcPl+ycXABqaqqClOcAYLfbaG1t9iu3WCw89Mv/YvacsjHv63R68vLyycvLZ+2a9dz52Vtpb2vz219RFO655+vccsttY97XaLSUls6mtHQ2y5eu5Ovf+ErAvrWcLG98DQ0NLFm6nJ/+5EH0esPp+LNzuOeer5OclMKvfv2LoOchKSmVFctXA6A3GFl/xQb+9OffBt1eiKkUkUlj9pyFmIxmhqxDHDi0a2oOqlIRe+lVqI0mPC4nAx/sw9ZUD24XutRMzLMWoDaaibv8atpffNKvxqC2RBOzci2o1LitQ/Qf2ImjvQ2VToc+pwDTjFloomOJXbmOzo3PBQ1DG5eIJiGJ7ndex9ZUh8pgxJhbiHnOYlR6A9FLL6Pzdf/99Zl5voRhb6pj4MgBXP09oFKhiUvAUrYETVQMsZddTftzj4+pMVmrjuNobTodQ0Iy0UsuBaDzjRfwOGxjjuWxj309EXQ6PSkpqQBU11QH3CY7Ow+AutqagBfte++9n9lzynA47Dz22CPs2LGd7u4uzGYLy5ev5M47v0hScjKf+uQdAS/ad931RW655Tbcbjcvv/xPXnnlRVpbW0hNTeO2T32GpctWsGTpctatu4rXXnvZP77hpDcw0M+3vvmvPP74o2za9BpDQ1bmzpnLN+77NrGxcdz0sU/w+F/+REdH4D460xk3LUaTKeB2QoRDxCWNhIQUCvO9d9n73n8Ph90+Jcc1ZBegiYoG8F6w66t9ZY72VhzNDcSt/yhqSzTGvCIGT3wwZn9T8VwUtQaPy0nHq0/j6u/1ldma63EN9BE1bxm6lHS0CSk4OloCxqHPzKXzjRewN9cB4LLb6D+4B1RqLHMWoktORx0Vg6uvZ+x+aZkAuK2DdG5+CUZdVJ3dnTjbW4lasAIATWw89pbTtTe3dQi3dcj3WtHpTu/b1TYlQ26zsrJRqbxdbNXVpwJuk53tvZOvrq3xKzOZTKxffy0Av/zlz3n++afHlB87dpShoSHmz1tAX4AmvpSUND796c8C8NBDP+fpp5/0lTU2NrB//z4e+/OTFBQWsXTpisBJIzsXgFmz5vC9732bjRtf9ZVterMZq93OL37+K9RqNbNmz+WdtzcH/D3rG2ppb28hMTEFgPffn6IbJyFCEFFJQ6VSs3DBCkChrqGKxsbTF4f0tGyWL/NW2Z99/nHc7vHbhM+VLiUD8F5gRyeMEfb2Fmw1lehS0tHEJ/mV61O9F21rzckxCWPE4JH9RJUtBpUaXXJq0KTh7O70JYzRhk4ewTJnIQDauAS/pDHSJOYeHBiTMHyf29czKf0QEyVnOCE4nU4aG+oDbzN8J18boCaSl1eARuM9Bzt2vBdw/yef/AtPPvmXgGVXXXUtGo2aurraMQljhNvt5oMjhykoLMJssQT8jJHmsz17do1JGCN27dzu+9loMPiVj3C5nDz2+H+TlZXHwEAfLa1T0zwrRCgiKmmUFJcTHRWL3W5n//4dYwsVBUWZvMFeaqMRIGh/AUD31o1By5Thi0Cw/T1uN86+HjQx8agMwZsbnL2BO2ldA/143B4UlYKi0fmVO4eHI2viEjEWFGOtOo5nGs1pyc7xNj3V19cF7SQeqWnU1lb7ldlGNZldddU1PPbY/521s3m0srnlALz77pag28TGxALQ0e7fHwKQnZULwDvvvHXW43V1dY5b7nDaOVV17KyfI8RUi5ikERMTT/HMOQAcOLAT66jmkikx0nl9njUYZXh/zzgXKs/ICDDVOMkv2CgxjwcFN6AGxb/YWnUc8+z5qM1RxCxfQ/SSS3H2dOHq7cbZ04m9uRF7WxN4InNRY1/TU5Cmqbi4eKKGmw9ra/ybp05VnqSq6hR5efl8/vN3c+utd3Dy5HHq6mo4efIEu3Ztp6oq8GcD5BUUAHDzzbdwww0fC7iNXq8HoK7OfyRTYmIiZrMZgIqKIwH3V6tVPPjgTwE4VnE0aCxCRLKISRpzZi9ApVLR2tZEde2JcIcz7bgddjpee5boRavQZ+ahqDVo45PQjjSllXmbvrq3vuGrlUSSnLOMnBppvgKorav2K3e73Xzta3fzrW/9K0uWLMdsNlNWNo+ysnm+bd7Y+Br/8aPv4nCM7SfT6w0kJ3n7DzQaLRqNdtxYa6r9YxzpzxjvdxgaGgrY9CXEdBIxSUOn8zbvDA4OYLFE+5UbDcapDmnacQ/20/32qyg6A7rEZNTRsaijY9Enp6OJS0ATG0/cmutof/4vQeeLhEv28HDVmmAjp4abrzo62unv7w+4TUtLE1//+leIiY6haGYxubn55OcXsGzZClJS0rhi3ZXU1FbxyCMPj9kvKzsbRfFW3665Zg2dnYGHVI8b/3DS6+7uorfXv09LiA+LiEkaI3JzCsk9Y67BlBhplho1x+JceIb3V9TB91dUw6d7kvsaPHYrtsZaGJ4Q1gcYC4qJWb4GtdGEPjMXa3Xk1OZiY+OwREUBgZt+APLyvBM9qwPc5Z+pp7eH3bt3snv3TsA7nPf3v/8js2bNYcniZX5JIzPDO4hhaGjovBIGQM5wTSNY0hPiwyKilxGZSq4hbx+KerizM5DYletIvvEOopdc5lfmGd5fEx0XcF9FpaCJjvEeyzp4gdGeu6HKCjx279BZdYCaXDjFxZ0+Z0ODgc/N4iXLADh0aP85f77dbuPoUe8QaVeAhB0XHw+Ah/Pv7xkZORWsaepcWaKiSUpMISkxhZhxvpNCTLWIqWlsfuvFccvT03NYsWzNpB3f3tqIqWgW2tgE9OnZ3jv1UXSJKehzClBUqoDDZW0tDWjiEzHkFNB/YJffch2m4nJfLcbR0uS3/4WKX3cDKr0Be3M9vbvf9StXmSwoWm9H7pmT9fy4Tl9YFZ0eJnmexuDg6UEPBYUzqDx1ckz56svXkp/n7ah+Y+NrfvvfddcXWb3mCmprqvn2t7/hV240Glm2zLtMygcfHPIr7+vxNieZjCbKy+ezf//Ydc70egNf+tJXiYqysPGN19gZYEjvyMipiapp3LDhVtLTsgB4d+sbvLf97COyhJgKEZM0ws1acxJn2RI0UdHEXnolA4f3YWuuB7cHXWoG5tkLUFQqnH09WKv8m3YGKw5iKpqFotESf9VN9B/YhbOjFUWnw5Cdj6nIOzLM3tKIo7N1wuN3drVjKp6LJjYeRadjqLIC1+AAilqDJjYey9xFoCh43B5sDeOvY+To7vA2oalURC9excDhfXhGrbfkGugbMxnwQrW0NNHQUE9GRib33ns/KpWKo0c/wGy2sGzZSm677Q4AXnrpeU5VVfrt39vbQ35eAfl5BfzHD3/K8/98hta2VnQ6Pfl5+dx666fJyMjEZrPy/HP/8Nt/9+6d2O02dDo9P/vZr/jNbx7k4KH9qBSF2bPL+NSn7iA3N4+W1mYe/M+f+O2v0WhJS0sHAneSnyudTk/q8Lwhl8vNwYN7LvgzhZgokjRGuN10v/0qcWuuRW00YylfgoUlYzcZHKB7yyunh86O4urvpWfrJmJXXYHaaCJm6WX+2/R2jzvX40L0vb8DbUIy2qRUjPnFGPOLA27Xv29bwMmHo3nsNvo/2IdlzkL06Tno03PGlPfuepfBYwcnLHaAX/36P/npTx4kLi6e733vx37l2957l1/8wv+CDfDii89z3bXXM6NoJmuvuJK1V1zpt43NZuV73/sO9QEmDvb09vCbXz/Iffd/h+joaP7t337gt82J48f45re+xuCQf7LMyspCPdyXNRHNU9lZeb7Z8cdPfkB/gEUmhQgXSRqjOLva6Xjp76dXuY0a7oPo78NWd4qBI/vHXVLDWltJ+4sdmGfNQ5eahdpkxuN24ezpxFpTyeCxw5M2asnjdNC58TmMM0ox5BahiU1ApdXi8XjwWIewtzczePQg9hBnF/fv34l7cADTzDmoo2NRxptbMgG2vruFr9z9WT51+53MnjUXs9lC/0Afx44e4eVXXmDTptfxBJljYrUO8YUv3sGtt97OZZdfQVZmFjqdHpvNSmNjI7t27eDvf/8LTU3Bf/dnnn2KuvpaPvGJT1FSOhuL2UxHRzvV1dW88soLbN68CWeQ/7uR4bYOh53GcY4RqpHVnQH2v79jnC2FmHpKWkphZM72EuIi9ZlP30NychrtHa088n+/Cnc4Qowho6eEiCAGg5GkJO9qv++/vzPM0QjhT5KGEBEkOzsfRVGw2+18cESeVikijyQNISJITra3P+PIkf3YbBP/3BIhLpT0aQghhAiZ1DSEEEKETJKGEEKIkEnSEEIIETJJGkIIIUImSUMIIUTIJGkIIYQImSQNIYQQIZOkIYQQImQRs8rt0iWXkZWZf9btOtpb2Pz2y1MQkRBCiDNJTUMIIUTIIqamsf/ATg5/EHiBNoPeyNy5i0mIT2JoAp8YJ4QQ4txETNKwWocA/4QQH5fIsmWrMeiN1NdXs2vPO1MfnBBCCCCCkkYgqamZLFuyGo1GQ8WxAxw6vDfcIQkhxEUtYpNGTk4hC+evBGDXnneoqTkZ5oiEEEJEZNLIy5vJwvnLGbJa2bHzLdrbm8MdkhBCCCI0aSQmJAMKBr2B5UtX09XVQU3dSerqTuHxyOM/hBAiXCIyaYxQFAW93kBqagapqRnk5cxg2/ZNOJ3OcIcmhBAXpYh8cp9eb0Sr1YKiYDKYyc2dQU52AQC1tZXs3P12mCMUQoiLkzrKEv/9cAdxJpfLid1uw263MTDYR0NjDSqViqTEVGJi4qlvqMZms4Y7TCGEuOhMmxnhRysO4HA4AEhPyw5zNEIIcXGaNknD5XLS09MBgMUSFeZohBDi4hQRHeFanY6kxDQA2lobcTgdAbdTa7QAKFMWmRBCiNEiImmoFDUrlq0BYPeed6gOMJFPo9EQZYkBYGCwf0rjE0II4RURzVM22xAdnW0AlMwsQztcoxittGQ+Go03xzU1109pfEIIIbwiZvTUwEA/uTkF6PQGMjJysTvsgEJ0VAyzSudRWFACeBPG8eOHwhusEEJcpCJqnkZBfjHlZctQqQL3WnR0trF16+vDCUUIIcRUi6ikARATE0/RjNmkJKeh1xtxuRx093RRW1dJddUJ3B53uEMUQoiLVsQlDSGEEJErIjrChRBCTA+SNIQQQoRMkoYQQoiQSdIQQggRMkkaQgghQiZJQwghRMgkaQghhAiZJA0hhBAhk6QhhBAiZJI0hBBChEyShhBCiJBJ0hBCCBGyiHhy32iJCSkUFpSQmJgyvMqti97eLuoaqqisrMDtdoU7RCGEuGhF1Cq388qWUlhYGrS8q7uDt995DYfDNoVRCSGEGBExT+6bWTSHkpJywPuwpYOHdlNRcZCGphoURSEmJg6jwYTZHEV9Q3V4gxVCiItURDRPqVQqimeWAdDS0sg7W18bU97cXI/DbqegoJiszDwOHNzJ0NBgOEIVQoiLWkR0hMfGJKDT6QCoOH4w4DaVVRW+n+PiEqckLiGEEGNFRE2jr7+Xt95+BYDOzraA29hsQ76f1eqICFsIIS46EXH1dThstLc3j7uN2WTx/SxNU0IIER4R0TwVisTENACcTiddXe1hjkYIIS5O0yJpaDQaioaH4lbXnsDlcoY5IiGEuDhNi6Qxr2wpBqMJh8NGxdH94Q5HCCEuWhGfNEqKy8nNLQI87Nm7jSHr0Fn3EUIIMTkioiM8mFmlCygt8c7fOHhor0zqE0KIMIvIpKFSVCxYsJLcnEIADh3ey7Eg8zeEEEJMnYhLGjqdnuXL1pCUmIrb7WHv+1uprj4R7rCEEEIQYUnDEhXDquVXYLFE43A62L5jMy0tDeEOSwghxLCISRrJSWksX7YarVbP0NAg727bSE9PZ7jDEkIIMUpEJA2zycKqletRqVT09Hax/8BO8HiIiY4LuL3NbsNqlVnhQggx1SIiaWg0WlQq7+jfmOg4Ll115bjbHzt+mIOHdk1FaEIIIUaJ+HkaQgghIkdEPblPCCFEZJOahhBCiJBJ0hBCCBEySRpCCCFCJklDCCFEyCRpCCGECJkkDSGEECGTpCGEECJkkjSEEEKETJKGENOAoigUJaSxIC0/3KFErPUFc0kwWsIdRlBROiNJpiiMWl24Q7kgEbH2lBAiuOLEdG4qWUxmdDy7GirZ23Qq3CFFpBuKF3L9zAXsaDjJ8xV76bGFf1FTg0bLtTPmsSSzgCidEYAnD+9gS82RMEd2/iRpiEmj0htQW2Jw9nXjsdvCHc60dO2MeVxTVI6CgtPtoqm/J9whRaz63k4yo+NZljmD0qQMHt67mVNdrWGLR60o3LvkKnJjE8MWw2SQtafEpNDEJ5Kw/kYUjQa33U7HK0/h6pML3rm4fuYCriwsA2Bb3TGeq9hDvyTfceXHJXPrnOVkRMVjczn55fZXqOlpD0ssC9Py+Oz8ywHYWHmIN6s/oNc6yHS/4EZkTSMzJZd7b/8eORneZ4TvP7qLHz/8jakNQqXGXDwXY8FM1JZoFI3WV+S222n9+x+mNp4ppEvLJH7tBgBan3oEt8167p+RkoGi8X69VDoduqQ0hiRphGxuSrYvYTx9dBebTh0Oc0TTw6muVn7+3kvcs3g9hXEpfGnhWr7/9jNYnY4pjyU7xlvD6Bjq59mK3VN+/MkScR3h61Zs4Gf3/ZGcjEI8nvDl5NhV64hasBxNbMKYhCFCY6s7hbOnCzwenJ1t2Bprwh3StKFRqbll9jIA9jSekoRxjmxOJw/v2cyAw06swcS1M+aFJQ718DOC+s7jpiuSRUxNw2yM4u5PfptFc1YBsGX3qygehUsXj/9ApsmgtkRjyPaOUhmqrGDo5FE8Lqev3ONxT3lM042rv4/2F54IdxjT0vy0XOIMZlxuD89W7Al3ONNSn32I10/u56Mli1mZPZMXT+zD5nSefccJNOS0A2DUfrhuOiOmplFaWM6iOavoH+zjl49+l//66wO4w3RxVluifD/37d+BvbURR0er75+zMzxtpOLisCi9AIAj7Q10DvWHOZrpa3v9SVxuDwaNltlJ2VN+/EGHt//JqJneQ2zPFDE1DYADFbv5r789QNdwx5WiUsITiDLquC5XSLvErlqHIXcGtroqura84v+RGi0pt3wegO63XsZaXz2mPG71tegzcug/tIeBg7swlZRjLCxFbbbgcdixNdTSf3AXrv6+ceNQGYyYS8rQZ+aitkSDouDq78VWV83AkfcD9k+YSsqIXrgy4Ocl33yX33vBfsekj96O2hzl9z5A8xP/E9K51ETHYi6dhy4tE7XJjNvlxtXXhbXmFIMVB/EEaZueqPN3oXRaLbddeTnXrFxCTmoSXb39bN53kF8/+RxXLVvEd+/6JPuPVXL7Dx8MuL8CFMQlAXC0vf6cjv2vX3iQ8pLFvLXrVX7/xAN+5dlp+Tz4rT8D8OUffIy2rma/bdRqNZctupqVC9aSk1GI2WjB5XLS0t7I+0d38tymx+kbGL9vqih3NutX3kBJwVziohNxOOzUt9awde8bbNz6LM4g34PcjEJ+cf+fcDodfPL+NWSn5nP92lspLZhHtCWG1s5mNm1/gZff/gdu99m/S312Kw19HWTHJDIjPnnKhyoP2b3fVdM0n5dxpohJGkdOvs+ew1vD0o+hMhjHXOw0UbGnf45LwuMYO2LF43FPam0jeulqjAXFvteKWoOxoBh9Zi6drz/r7SsIQBOXSNya61AbTWPfj4lHExOPoWAmXZtexNndMWmxXwhDdgGxq64Aldr3nkqlRhWfjDY+GWNBMZ1vPI97cGDczznf83ehYswm/vc7X6Uk9/RdbXJ8LJ9YewlmvZ72Xm/Cqm5uCfoZZp0ek1YPQGNv9zkdPz3Fe9yGlsD9R+nJWQA4nHbau/2HopqNFr7zhV9QlDt7zPsqjY7M1FwyU3NZMW8N//LQ53w3dqMpisJtH7mb6y7/+Jj3NWoNM7JLmJFdwrzipTzwv/cHbOJNH64NNHc0Ula8mPvv/DG64XMxEv/tG+4mITaJR5/77Xinwqe+r5vsmESSTNEhbT+RbG5v0tCo1KgUVdhaTiZaxCSNgTBWww15RUHvtOOv+Ijfe5M5ekobl4gmIYnud17H1lSHymDEmFuIec5iVHoD0Usvo/P15/x3VKmIvfQq1EYTHpeTgQ/2YWuqB7cLXWom5lkLUBvNxF1+Ne0vPjnmjt1adRxHa9PpGBKSiV5yKQCdb7zgnzSDDPvs3vwyqE9f8HUp6UQtWBHS7622RBOzci2o1LitQ/Qf2ImjvQ2VToc+pwDTjFloomOJXbmOzo0Bfv8LPX8T4Edf/DQludk4nC4ef/VNNu/ZT9/AECvKZ/GlG67mSHUdAFWNwZOGadRFcsAZ+vBarUZHYlwyAI2ttQG3SU/OAaCptTbgRfvT199DUe5snE4Hz216nP0Vu+gd6MGoNzG/dCkfW38n8bGJbFh9S8CL9sfW38l1l38ct8fNlp2v8Pbu12jvbiUpLpXr19xKeckSyksWs2rBWt7Zs9E/vhRvUhuyDvD5m+/j+Tef4L19m7DarczMnc1dN32NaEssV626kefffILu3rPf/AzavTVrs85w1m0nmmF4AM2Aw/ahSRgQQUlDeOkzc+l84wXszd4LjMtuo//gHlCpscxZiC45HXVUjN+cB0N2AZoo791U9zuvYxvV/OVob8XR3EDc+o+itkRjzCti8MQHvnK3dQi3dcj3WtGdrk47u9pCHnLrOKMGozKFvqSDqXguilqDx+Wk49WncfX3+spszfW4BvqImrcMXUo62oQUHB2BL7zne/4u1ILiQi6dPweAf/2fP/Pa9tMd2FVNLSRER3HXR9YDUN0UfMKZdlQty+0O/UKTnpSFSvF2Uda3VAfdBqChtc6vzKg3cclCb3yPPPsrNr33wpjyqvrj2OxWSgvKGRjyr+klxqXw0StuA+BPz/6G1959xlfW2tHEkcoD/Of9j5CdXkh58dLASSPJm9Rm5JTy68d/wNa9m3xl7+3fjN1p51uf/QkqlZoZOaXsPvRu0PMxwjV8sdaopq77Vq1SkREVz5o8b43tvboTU3bsqSBJAxg8eoDBowd8rydinsL5cnZ3+i54ow2dPIJlzkIAtHEJfhc9XUqGb3/bGf0lAPb2Fmw1lehS0tHEJ0184BdIn5oJgLXm5JiEMWLwyH6iyhaDSo0uOTVo0jjf83ehNlyyFID3j50ckzBG7K046UsaNU3Baxrna6Tpyely0trRGHib4earxgBJIzM1F/VwLfHA0V0B939py1O8tOWpgGWXLlyPWq2mua1uTMIY4fG4OVFzlOz0QkxGc5D4vL/DoRN7xySMEQcqTsdl0E99zWE831pxHXmxY/+u+u1WNlcd4fkP2Qg4SRoRxhmkHds10I/H7UFRKSgBRmOojd51bcZrr+/e6n93FykUg/ciECx+j9uNs68HTUw8KoMp4DZw/ufvQs0r8o542rLvUMByZXhwhcvtpralbcKPn5483B/Q3oArSEfzSGJpbPXv87APDw8FuGTROp7b9NeQOptHFOfPBWD34W1Bt4myePsKu3oD9wemDdeEdh/cetbj9fSdW39POPTZrbQN9vpqOx8WkjQijSvIWHKPBwU3oPYOsTnTSLPGOfyhRxJlOH7POCOsfHNlxmtqON/zdwF0Wi1Zqd7+hIrawCOeMpO9d6GNrR1BRw9diJGk0dAcuBM8xhKH2Rg1HIN/TaO28RT1zdVkpubyias/x0dWf5Laxkqa2uqoaazkQMXuoM1eAFlpeQBcdclNrFtxfcBttMOjiJra/M9RXHQCJoO3BnKqviLg/iqVikee+RUAVXXHgsYSDg/v3Yx2uKamVlTkxCZyU8kiPj5rKR6Phy01R8Mc4cSRpCHEBcpJS0Y1XJOobgjc9JSb7k0qVeOMnAI438GDaSMjp1qrA5aP1DIAmtr8k4bH4+bHD9/H52++j7LixZgMZorz5/pqEADb9m3id088gPOMYc86rZ74GG9S1Kg1aNTj82bSswAAIABJREFUX1YCje4aSXrBygFsdmvApq9I0G0d28/T3N9NlM7ATSWLWZM3S5KGEOK0/LRUAIZsdpo7Azev5aenAFAzTic4gMN9uqakVYX+55mR5O0TajjLyKmu3o6gIxXbu1p44OH7iTJFk5tVRGZyLtlpeZSXLCExLoUV89fS0FLDP15/dMx+aclZvua3z/37Brr7OkOO+3R83qTW299N/+DEzaXRDScwu2vq157qHPSe5wSTBQWm/UKFIyRpTJThb4RHCdz2MXqiosc9CV+fkWapUaNvphPPcPyKOnj8yshF9BxGFU2FrFTvXXZDW0fQeUb56WkAVDf5T6gbrX/U8OYovX6cLU+LtsRiGm56ag7Q9APejm4Ifhc/Wt9gL4eO7eHQMW8Hrlaj4wf3/JYZOaWUFS/2SxqpiemAtyZwPgkDTie1YMOFz1f0cIf5gN1+li0n3sjaU8pEt4eGWcQsIzLduYf/2DVBhpmqzKcnF3nsEz8ayzXkHTKrjokNuk3synUk33gH0Usum/DjXyjPcPya6LiA5YpKQRMdA4DLGv6H64wWF+X9Pw/WAT23MJekOG/s1Y3j1zSGHHZfU8fIKqlnE20+/X9utQ0F3KaseBEAx6rOffFDh9NOZa23ecUVIGHHWLz/ZxcyMXdk5FQoSe1cZEUlANDYPzkTOscz8oQ+q9PxoallgCSNCePo8F4M1HHxaGLj/cqNud5l3j1ut998holgb/UOs9TGJqBP919nR5eYgj6nAJXJHHS4qo/r9IVB0YV2t3uhbC0NABhyCgIuRWIqLvfVohwtTX7l4TQw5L0JyM9IIyl27MxjtUrFvbfc4Hs93mzwESc6vduUpYS2XpLVfjpRZKf7Pw52WdllZKV6O6q37fMfyvqxK+/kl//yGPd95scBP1+vMzCv1Lvq7skAT5zrH/A2Jxn0RkoLyvzKdVo9n7nhq9x963coL14c8Bgjs8GDNa+dj1RLLMkWb7I+cbbv/CQYWXNq0Dn1tZzJFDHNU7FR8RjOGEpp1HlHU+j1BlKH22wB3G4XrR2RdeGw1VTiWbAcRWcgbvW19L2/HWdHG4pOhyG7AFOJd3lma/VxPJOw2qa15iTOsiVooqKJvfRKBg7vw9ZcD24PutQMzLMXoKhUOPt6sFaNP9nI0d3hbQJSqYhevIqBw/vGxOwa6BszGRBAZTKjPmP8/chkQwBtfNKYZiVnX++YGtdgxUFMRbNQNFrir7qJ/gO7cHa0Dp+/fExF3olz9pZGHJ3hexpbIO+fqARAq1Hz3/9yD7/62/PUNLeSmZLI5zdcNWa0VFF2Bh6Ph/Zu/7koI3Y0nGRRej7ZMYkUJaRx/Czf9fauFlo6GklJSOeOG76KSlFRWVuB0WBmXukyrl/zSQDe2vkydc1Vfvv3D/SSlZpHVmoe997+PTZtf5GOnja0Gj1ZqblsWH0LKQnp2B023njvn377Hzq+B4fTjlaj4/67fsJj//wdFVWHUKFQlDebj6z+JJkpOXR0t/LI0w/57a9Ra0iO9/YLNU5gTeOKfO/kuh7b4Dmv4zURjMMzwq0OSRqT4jMf/SrL560JWFaSP5ff/uvffK8Hhvq549tXTVVoIXE77HRv3UTspVeiNkcRu3Kd3zbO7g56dwcfx35hAbjpfvtV4tZci9poxlK+BAtLxm4yOED3llfGLPMeiMduo/+DfVjmLESfnoM+PWdMee+udxk8dnDMe+biuZhnzQ/6mQlX3jjmdffbr2GtrfS9dvX30rN1E7GrrkBtNBGz9DK/z3D1dkfkXJMdhyrYd+wk82cWUpSVwe+/ebev7PCpar7zq0d56aEfoFWr+e9vfoUhm50ld94b9POOtDX4Hl1665zl/HTbiwyd5cLz6HO/5f47f0SMJY57PvXvfuV7j2znD//4ZcB9N+98idVLryE3o5AV89eyYv5av23sDhu/fvyHNLc3+JX1Dfby5+d+x2c/9nUspii+fMu3/bapbjjJz//47YDNZ6mJmaiGa5ETVdMoSUxneeYMAN44dRhXGNa00w8nDUeE9cFdqIhJGh8GtoYaOl7+B+ZZ89ClZqAymsHtxtnbhbWmksGKA5NSyxjh7Gqn46W/n17lNmq4D6C/D1vdKQaO7A95dnv//p24BwcwzZyDOjoWZQqWYbDWVtL+Ysfw+ctCbTLjcbtw9nR6z9+xw0FXuQ0nj8fDV37xe+65+TrWLl5ArMVEU3snr27fy/+9+DpDNjs//MNf+erHN5AUF0Nt8/g1JY/Hw18ObeX+ZdeSYo7hnkVX8Ps9m8Z91Ouew1v5/u++yoa1n6IodxYmvZlBaz+VtcfYsvtV3nv/zaB9Dja7lX/79ZfYsPoWlpRdRlpSJlqNDrvDRmtHEweP7eblt5+itTN4J/7r256jqb2eay+7mcLsEowGM929HTS01LJl9yvs2L8FZ5CblZGZ6k6ng5YJaEEoTkzn8wvWoCgKtT3tvFX1wdl3mgQDw/9fiSYLWpUaxzSdQ3UmeUa4EBFqUUY+d5ZdiqIo9NmtvHbyALsaTtFn979bT4lPIyU+Ha1WR31LNS2d53bxne77g3fgwGU5xSzLnIGiKLQP9vOL7S/SYw08OGCy5ccm8c0V1wFwqLWeN08dpts2SI9t8Kw1x0gmSUOICFaalMFd8y7DPLz67a6GSv5v/9u+8gUly7hrw1d9S3CMaGqr48k3/sQ7e8dvzpvu+4/2P9fc6fu5oqORR/a9HTDBTqXb5q5gRdbMMe89eXgHWwIMKJgu1FGW+O+HOwghRGBtg31srTmOolJIs8TSOtDL+8NLhVy5/Aa+/qnvEWX2NkPWNFXS0FaHxRhFfEwii0qXYzRYOHB8d8DP/sS6u/jyzd+ctvtnJufQO+qBUNcWzaOhr5O/f7CT5yt2YztL391UONRSR6e1nyidEaNWh0al5nBrPdU9E7/+2FSRmoYQ04RapSLBFEVrv/dCqdXo+MW9f2Dz7ld44e2/+7bTanSsWXwNd13/VTRqLdWNJ/nLKw9TUX0YvVZH+cwlrF58DTNzSmnvbuXVbc9O2/3/7ff3cKzaO/ckIyqOhr6pn49xsZGkIcQ0ptXocASZB7CgZBlfuPEbJMWlBiwftA7wwP99iw8q90/b/X/4h2/4koaYGpI0hPgQ02p0fOTSj7NkziXkpRficDpo7Wxix6F3ePGdpxgYGn+dp+m+v5h4F33S2L498F1OqC5fvXyCIhFCiMgny4gIIYQImSQNIYQQIZOkIYQQImSSNIQQQoRMkoYQQoiQSdIQQggRMt8qt5/+9Gf54he/ctYdamtr+PjHN0xqUEIIISKTr6ah0UzPZ0sLIYSYOr6axshDUE5VVfL9738n6A52W/A1/YUQQny4+ZKGWu2tdAwODHDi+LGwBSSEECJy+Zqn1Gpv/nC5PhxPlxJCCDHxRiUNb/OU+0P2PFshhBATx69Pw+VyYjQaufPOL7B27ToSE5Pp7+9j3/t7+dOf/peTJ46HLVghhBDhdbqmMTx6yuOBhx76PZ/61B2kpqaj0WiIjY1j9eVreeSPj7N48dKwBSuEECK8TieN4ZrGggWLSExM4kc/+i6fvuMTfO3rd/PCC88CoNPp+e53f4RebwhPtEIIIcLK1zx16tRJtr33Lg67nZ/97Ed0d59+bOKO7dtoaGjgS1+6h4SERC699HI2bnw1LAELIYQIn5AfwqTRaHjttbcxm808/fSTPPjgTyc7tikhD2ESQojQhbz2lNPppKamCoDYuPhJC0gIIUTkOqcFCwcHBwDQa7WTEowQQojIdk5Jw2QyA2C32yclGCGEEJFNA6AoCtdcswGVSsWJ48c4WvGB34ZqtZrs7FwAWlpbpjRIIYQQkUED4PF4uPGmmymeWUpNTTV3fuYWBoeGxmx4yy23YbFYANi5872pj1QIIUTY+Zqn/vzoHwHIycnl4Yf/zLp1V1FQWMTChUu4//7v8OUv/z8ADh86wK5dO8ITrRBCiLAaM+T2s5/9Anfe+UUURQm48amqSu79f1+ira11ygKcbDLkVgghQqcZ/eKPf3yYnTt3cPPHbmFu+Tzi4xKw2+1UVVXy5psbee65p7Fah4J9lhBCiA85zZlvHDp0gEOHDoQjFiGEEBHunIbcCiGEuLhJ0hBCCBEySRpCCCFCJklDCCFEyCRpCCGECFnIS6MLIYQQUtMQQggRMkkaQgghQuY3ue9iFWswo1YU+h1WbE5nuMMRQoiIJElj2BcWrCYvNgkPHup7OtlYdYjdDafCHZYQQkQUaZ46g4JCVkwCd5Vfxpq8WeEORwghIoqMnhpFrajIiIrjk3OXkxuThNXp4L43nsDpdoU7NCGEiAgR2TwVHRXL0sWXERMbD0BzcwPvbnt90o/r8rip7e3gmSO7+cayqzFotKSYo2no65r0YwshxHQQcUmjIL+YsrmLUas1gAcI/GyPydRnt55+EeTZIkIIcTGKmKSh1epZvHAl6ek5AFTXnAAUcnMKpzwWo0br+3nIYZ/y4wshRKSKmI7wpKRU0tNzsNvt7NjxFrv3vIu3pjH1jFqd7+chpyQNIYQYETE1DYCWlgZ27X0X69BgWOMwarxJw4MHq9MR1liEECKSREzSaGtrorGxJtxhAKBVqwFwul14PDK4TAghRkRM85QjgvoOem3e56BrFDValTrM0QghROSImKQRSU50NNNjG0RRFG4qXUK03hiGMVxCCBF5IqZ5KpI43C5+t/sNbpuzgkuyZ3JpTvGY8icP72BLzZEwRSeEEOEjNY0gWvt7qOxqpWNoINyhCCFExJCaRhBfXnQFMxPSqGhv5LED79BtH/J1ivePnvwnhBAXEUkaAWRHJzAzIQ2AR97fMnaGuBBCXMSkeSqAFEsM4O3bkIQhhBCnSdIIQDW83pRKTo8QQowhV8UAhoZngatVCjq1tOAJIcQISRoBjF46ZGRJESGEEBHUEW4wGNGMWl0WQDt8wdZoNVgs0b73PR43AwP9kxaLddTsdL1WC7ZJO5QQQkwrEZM0ysuWkJWZH7AsMSGFq9bf5Httd9j55wt/mbRY7KOe1KeX5ikhhPCR5qkAUsynazXWCFoTSwghwi1ibqN37NzCjp1bwnb8eKMFo1ZHRlQc189cAEDbYB9tg31hi0kIISJNxCSNcPvc/MvJi03yvXZ53Pzt8HthjEgIISKPJI1R3B43fXYrJzpbeO3kAep7O8MdkhBCRBQlLaVQnjIkhBAiJNIRLoQQImSSNIQQQoRMkoYQQoiQSdIQQggRMkkaQgghQiZJQwghRMgkaQghhAiZJA0hhBAhk6QhhBAiZBG3jEhiQgqFBSUkJqag1xtxuVz09nZR11BFZWUF7lHLlgshhJhaEbWMyLyypRQWlgYt7+ru4O13XsPhkKciCSFEOKijLPHfD3cQADOL5lBSUg5AR2cbBw/tpqLiIA1NNSiKQkxMHEaDCbM5ivqG6vAGK4QQF6mIaJ5SqVQUzywDoKWlkXe2vjamvLm5HofdTkFBMVmZeRw4uJOhocFwhCqEEBe1iOgIj41JQKfzPg+84vjBgNtUVlX4fo6LS5ySuIQQQowVETWNvv5e3nr7FQA6O9sCbmOzDfl+Vstzu4UQIiwi4urrcNhob28edxuzyeL7WZqmhBAiPCKieSoUiYlpADidTrq62sMcjRBCXJymRdLQaDQUDQ/Fra49gcvlDHNEQghxcZoWSWNe2VIMRhMOh42Ko/vDHY4QQly0Ij5plBSXk5tbBHjYs3cbQ9ahs+4jhBBickRER3gws0oXUFrinb9x8NBemdQnhBBhFpFJQ6WoWLBgJbk5hQAcOryXY0HmbwghhJg6EZc0dDo9y5etISkxFbfbw973t1JdfSLcYQkhhCDCkoYlKoZVy6/AYonG4XSwfcdmWloawh2WEEKIYRGTNJKT0li+bDVarZ6hoUHe3baRnp7OcIclhBBilIhIGmaThVUr16NSqejp7WL/gZ3g8RATHRdwe5vdhtUqs8KFEGKqRUTS0Gi0qFTe0b8x0XFcuurKcbc/dvwwBw/tmorQhBBCjBLx8zSEEEJEjoh6cp8QQojIJjUNIYQQIZOkIYQQImSSNIQQQoRMkoYQQoiQSdIQQggRMkkaQgghQiZJQwghRMgkaQghhAiZJA0hpgFFUShKSGNBWn64Q4lY6wvmkmC0hDuMoKJ0RpJMURi1unCHckEiYu0pIURwxYnp3FSymMzoeHY1VLK36VS4Q4pINxQv5PqZC9jRcJLnK/bSYwv/oqYGjZZrZ8xjSWYBUTojAE8e3sGWmiNhjuz8SdIQk0alN6C2xODs68Zjt4U7nGnp2hnzuKaoHAUFp9tFU39PuEOKWPW9nWRGx7MscwalSRk8vHczp7pawxaPWlG4d8lV5MYmhi2GySBrT4lJoYlPJGH9jSgaDW67nY5XnsLVJxe8c3H9zAVcWVgGwLa6YzxXsYd+Sb7jyo9L5tY5y8mIisfmcvLL7a9Q09MellgWpuXx2fmXA7Cx8hBvVn9Ar3WQ6X7BjZiaxtc+/X2Wz1tz1u2OnTrIv/3m7skPSKXGXDwXY8FM1JZoFI3WV+S222n9+x8mP4Yw0aVlEr92AwCtTz2C22Y9989IyUDReL9eKp0OXVIaQx/ypKHVaNj96K9RKQqf/8lv2HG44rw/a25Kti9hPH10F5tOHZ6oMD/UTnW18vP3XuKexespjEvhSwvX8v23n8HqdEx5LNkx3hpGx1A/z1bsnvLjTxbpCA8idtU6ohYsRxObMCZhiNDY6k7h7OkCjwdnZxu2xppwhzTpctNTUCkKACfqGs/7czQqNbfMXgbAnsZTkjDOkc3p5OE9mxlw2Ik1mLh2xrywxKEefkZQ33ncdEWyiKlp/OnZ3/C3V/4YsCwuKp7bNtzNjJxSuvq6Jj0WtSUaQ7Z3lMpQZQVDJ4/icTl95R6Pe9JjmO5c/X20v/BEuMOYUgUZaQB09/XT0dN73p8zPy2XOIMZl9vDsxV7Jiq8i0qffYjXT+7noyWLWZk9kxdP7MPmdJ59xwk05LQDYNR+uG46IyZpdPd1Qp//M8ELs0v4xp0/IsYSx44Db/Pbv/zHpMeitkT5fu7bvwP34MCkH1NMf/npqQAcv4BaBsCi9AIAjrQ30DnUf8FxXay2159kw8xFGDRaZidlT/mos0GHt//JqJneQ2zPFDFJI5DykiXc95kfodcZeG7T4/zt5T/g8UxBN9JwEwMALldIu8SuWochdwa2uiq6trzi/5EaLSm3fB6A7rdexlpfPaY8bvW16DNy6D+0h4GDuzCVlGMsLEVttuBx2LE11NJ/cBeu/r5x41AZjJhLytBn5qK2RIOi4OrvxVZXzcCR9wP2T5hKyoheuDLg5yXffJffe8F+x6SP3o7aHOX3PkDzE/8T0rnURMdiLp2HLi0TtcmM2+XG1deFteYUgxUH8QRpm56o83chCjK9NY2TdY2YjXpuv3otVy5bSHpCHH2DQ2zec5DfPvVPegaCDwVVgIK4JACOttef0/H/9QsPUl6ymLd2vcrvn3jArzw7LZ8Hv/VnAL78g4/R1tXst41areayRVezcsFacjIKMRstuFxOWtobef/oTp7b9Dh9A+P3TRXlzmb9yhsoKZhLXHQiDoed+tYatu59g41bn8UZ5HuQm1HIL+7/E06ng0/ev4bs1HyuX3srpQXziLbE0NrZzKbtL/Dy2//A7T77d6nPbqWhr4PsmERmxCdPedIYsnu/q6ZpPi/jTBGbNC5ZtJ4vfeJfAPjtX3/EO7tfn7RjqQzGMRc7TVTs6Z/jkvA4xo5Y8XjcODsnb0RG9NLVGAuKfa8VtQZjQTH6zFw6X3/W21cQgCYukbg116E2msa+HxOPJiYeQ8FMuja9iLO7Y9JivxCG7AJiV10BKrXvPZVKjSo+GW18MsaCYjrfeP6sNb/zPX8XKm+4plHb0sqf/u3rFOdm+cr0Oh03r13F3MJcbv3ez3E4A1/0zDo9Jq0egMbe7nM6fnpKNgANLYH7j9KTvfE4nHbau/2HopqNFr7zhV9QlDt7zPsqjY7M1FwyU3NZMW8N//LQ5+gKMCJJURRu+8jdXHf5x8e8r1FrmJFdwozsEuYVL+WB/70/YBNvepI3/uaORsqKF3P/nT9GN3wuRuK/fcPdJMQm8ehzvx3vVPjU93WTHZNIkik6pO0nks3tTRoalRqVosL9IWnWjsiksWbpdXzh4/fT3dfJLx/9LhWnDk7q8Qx5RUHvtOOv+Ijfe5M5ekobl4gmIYnud17H1lSHymDEmFuIec5iVHoD0Usvo/P15/x3VKmIvfQq1EYTHpeTgQ/2YWuqB7cLXWom5lkLUBvNxF1+Ne0vPjnmjt1adRxHa9PpGBKSiV5yKQCdb7zgnzSDDPvs3vwyqE9f8HUp6UQtWBHS7622RBOzci2o1LitQ/Qf2ImjvQ2VToc+pwDTjFloomOJXbmOzo0Bfv8LPX8XSKNWkZOWDMDlC8roHRziiz/7HXUtbWQkJXD3jddSVpRPcW4W65bM5+VtgUfTmEZdJAecoQ+v1Wp0JMZ5j9/YWhtwm/TkHACaWmsDXrQ/ff09FOXOxul08Nymx9lfsYvegR6MehPzS5fysfV3Eh+byIbVtwS8aH9s/Z1cd/nHcXvcbNn5Cm/vfo327laS4lK5fs2tlJcsobxkMasWrOWdPRv940vxJrUh6wCfv/k+nn/zCd7btwmr3crM3NncddPXiLbEctWqG3n+zSfo7j37zc+g3VuzNusMZ912ohmGB9AMOGwfmoQBEZo0igvmoCgKMVFx3H/njzlVd5x39r7G1r1vfug7ofWZuXS+8QL25joAXHYb/Qf3gEqNZc5CdMnpqKNi/OY8GLIL0ER576a633kd26jmL0d7K47mBuLWfxS1JRpjXhGDJz7wlbutQ7itQ77Xiu50ddrZ1RbykFvHGTUYlSn0JR1MxXNR1Bo8Licdrz6Nq/90R7KtuR7XQB9R85ahS0lHm5CCo6Ml4Oec7/m7UJnJiWiHE+aQ1cb/e+hhX1NqXUsbeytO8upDPyQ5PpbFpTODJg3tqFqW2x36dz09KQuV4h2tU99SHXQbgIbWOr8yo97EJQvXA/DIs79i03svjCmvqj+OzW6ltKCcgSH/ml5iXAofveI2wDuo5bV3n/GVtXY0caTyAP95/yNkpxdSXrw0cNJI8ia1GTml/PrxH7B17yZf2Xv7N2N32vnWZ3+CSqVmRk4puw+9G/R8jHANXy80qqkbKKpWqciIimdNnrfG9l7diSk79lSIyKQxQqWoiLbEUl6ymPKSxVy+6Gp+9si3sdkndgjb4NEDDB494Hs9EfMUzpezu9N3wRtt6OQRLHMWAqCNS/C76OlSMnz7287oLwGwt7dgq6lEl5KOJj5p4gO/QPrUTACsNSfHJIwRg0f2E1W2GFRqdMmpQZPG+Z6/C1WQmQ6Ax+PhgUf/7tf35nA62XfsJFcuW0hslHlCjw2nm56cLietHYE74kearxoDJI3M1FzUw0nvwNFdAfd/actTvLTlqYBlly5cj1qtprmtbkzCGOHxuDlRc5Ts9EJMxsC//0hN49CJvWMSxogDFafjMuinvuYwnm+tuI682LF/V/12K5urjvD8h2wEXEQmjb/88795ZuNjKIpCYkwyly25mksWrmPOzIV84eZv8pu//DDcIU4aZ5B2bNdAPx63B0WloAQYjaE2ete1Ga+9vnur/91dpFAM3otAsPg9bjfOvh40MfGoDKaA28D5n78LNdKfcbS6jubOIH1Oau+fW2//xK+JlJ483B/Q3oArSEfzSGJpbPXv87APDw8FuGTROp7b9NeQOptHFOfPBWD34W1Bt4myePsKu3oD9wemDdeEdh/cetbj9fSdW39POPTZrbQN9vpqOx8WEZk0evq76On3/uE1tdZx6MRe2rua+egVt7Nq4RU8t+lx6pqrwhzlJHEFGUvu8aDgBtTeITZnGmnWOIc/9EiiDMfvGWeElW+uzHhNDed7/i7QyByNQ5XVQbfJTvPeida0tE348UeSRkNz4E7wGEscZqN3sEegmkZt4ynqm6vJTM3lE1d/jo+s/iS1jZU0tdVR01jJgYrdQZu9ALLS8gC46pKbWLfi+oDbaIdHETW1+Y8Ki4tOwGTw1kBO1QeeSa9SqXjkmV8BUFV3LGgs4fDw3s2+5km1oiInNpGbShbx8VlL8Xg8bKk5GuYIJ05EJo1Antn4GFeuuhGTwczC2Ss/vElDTEv5GSkAVDX6D2MFUCkKuanejurqINsAnO+I8rSRkVOt1QHLR2oZAE1t/knD43Hz44fv4/M330dZ8WJMBjPF+XN9NQiAbfs28bsnHsB5xrBnnVZPfIw3IWrUGl+NKphAo7tGkl6wcgCb3Rqw6SsSdFvH9vM093cTpTNwU8li1uTNkqQRDnaHjdrGSorz55KamB7ucITwURSF3DRv81SwpJGelIBueGbwqYbgScPhPl1T0qpC//PMSPL2CTWcZeRUV28HA0EmDLZ3tfDAw/cTZYomN6uIzORcstPyKC9ZQmJcCivmr6WhpYZ/vP7omP3SkrNQhuc2fe7fN3gn6p6jkaTW299N/+DEzaXRDScwu2vq157qHPSe5wSTBQWm/UKFIyIiaZiMFmYVeteHOXx8L0NB1sHXDw+bU5RJaF+4UMPfCE+Q2BTV6fc97kn4+ow0S40afTOdeIbjV9TB41dGLqLnMKpoKqQlxmHUe5teGtoCXzBH5mzYHQ7qWoM3T/WPGt4cpdcH3W60aEsspuGmp+YATT/g7eiG4Hfxo/UN9nLo2B4OHfN24Go1On5wz2+ZkVNKWfFiv6QxchNns1vPK2HA6aQWbLjw+Yoe7jAfsNvPsuXEG1l7SpmM9tAwiogFC7VqLd+86wG+edcDLC67JOA2ep3BV4Vt7WwKuE04uYf/2DVBhpmqzKcnF3kmePSPmccJAAAPHUlEQVQXgGvIO2RWHRMbdJvYletIvvEOopdcNuHHv1Ce4fg10XEByxWVgiY6BgCXNfwP1xmtION0zdcZpE/lsvlzADhwsiroxD6AIYfd19Qxskrq2USbT/+fW21DAbcpK14EwLGqc1/80OG0U1nrbV5xBUjYMRbv/9mFrNYwMnIqlKR2LrKiEgBo7J/8NevONPKEPqvT8aGpZUCEJI2e/i6OV3vnDdy49naMev/RMR+/6i5fTeP9IzunNL5QODq8M2zVcfFoYuP9yo25hYB3FNCZ8xkmgr3VO8xSG5uAPj3br1yXmII+pwCVyRx0uKqP6/SFQdGFdrd7oWwtDQAYcgoCLkViKi731aIcLZF105Cfker7ecmsYr/y8qICrl6+GIB/vr3jrJ93otP7/1OW4v//GIjVfjpRZKf7Pw52WdllZKV6O6q37fMfyvqxK+/kl//yGPd95scBP1+vMzCv1Lvq7skAT5zrH/A2Jxn0RkoLyvzKdVo9n7nhq9x963coL14c8Bgjs8GDNa+dj1RLLMkW743GibN95yfByJpTg86pr+VMpohongJ48uU/8O9ffoi05Cx+8o0/8MzGR6lprMJiNHPZ4qu5fMnVAOw9sp3KuvN/TsFksdVU4lmwHEVnIG71tfS9vx1nRxuKTochuwBTibf5zVp9HM8krLZprTmJs2wJmqhoYi+9koHD+7A114Pbgy41A/PsBSgqFc6+HqxV4082cnR3eJuAVCqiF69i4PC+MTG7BvrGTAYEUJnMqM8Yfz8y2RBAG580plnJ2dc7psY1WHEQU9EsFI2W+Ktuov/ALpwdrcPnLx9TkfdO3d7SiKMzfE9jC6RgOGm8d/AI3/n0zZiNBnYcOoparWbl3FI+f8PVaNQqjlTV8vK2wHMgRtvRcJJF6flkxyRSlJDG8Y7xk2R7VwstHY2kJKRzxw1fRaWoqKytwGgwM690Gdev+SQAb+18OeAAkv6BXrJS88hKzePe27/Hpu0v0tHThlajJys1lw2rbyElIR27w8Yb7/3Tb/9Dx/fgcNrRanTcf9dP+P/t3WtwVOUdBvDn7DWb3dwDIfeLgRBIIBAUk2hJAzK2INhqveIXaevUGamXascZ2zp+6HTq1NYp49hBba1O610piqjIRUEuISQxF4IQciGbkM1tb9nsffshm5CQBI4tm33XPL9Puznn5PxnGfbJ+57z/s8/d25HS1sDFJCwKLcIm6ruQUZKNgbMJrz8zp+nHK9SqjA/cfQz7L6KI42b8kYX11lcjm/dx+tq0AVXhDs9DI2QaDhTg5fe+RPu//EjSJ+fhW1bfjtlnzMdzdg+C11u/xd+jxvmQ3sRv+ZmKPUxiL9h/ZR9vOYBWKtnvo/9/yvAD/PBj5GwdiOUOj0MJathwOrJuziGYT6we1Kb9+kE3C7Ym07CULwK2rRsaNOyJ223Hv8SjtOTW7voFy+DfunKGX9n0s23TXpvPrgHzs7W8fc+uxWWQ3sRf+NNUOqiEXd95ZTf4bOahVxrMrZGY3/N19BpNXhiy+1T9mnr6cUvn3tx2umdSzX3GccfXXpvcTn+cHgXRq7wxfOP9/+Kx4PdoB/a8psp22uaj2DH289Ne+y+Yx+i6voNyEnPR8XKdahYuW7KPm6PC8+/9gwu9BunbLM5rHj1/e346U8ehSE6Bg/e/eSUfdqNZ/HHl56cdvpsQXIGFMFR5NUaaRQmp6E8YyEA4LNzjfDNRqPTS2iDoeER7Brc/0uY0ACATw/vREtbEzZV3omiglLEGRLgco+go/scDtV8iv3Hds84ZywCl7EDAx+9Df3SFdAsSIdCpwf8fnitQ3B2tMLRUh+SUcYY71A/Bj5882KX25jgNQC7Da7z5zDcXCd7dbu97hj8jmFEFxRDGRsPaRbaMDg7W9G/ayD4+WVCGa1HwO+D1zI4+vmdbpyxy2045U1oVPjIX3bg4bs2o2J5EeIN0ejqG8CeIyfw6kd74XDK6yUVCATwesMhPF62ESn6ODx07U144cTeyz7q9UTjITy9fRs2r9uCRTlLEa3Vw+G0o7XzNA5Uf4yvaj+f8ZqDy+3EU8//Apur7sbq5ZVInZcBtUoDt8cF00APvj5djY8OvgXT4Mx3fX1y+H309HdhY+UdyM8qhC5KD7N1AMbeThyo3o2jdQdm/L87tlLd6/Wg9wqjKjkWJ6fh56VrIUkSOi392N/WdOWDQmA4+O+VHG2AWqGEJ0LXUF2KzwgnEtS16Xm4f/kaSJIEm9uJPWfrcdx4Djb31L/WUxJTkZKYBrVag67edvR+y5tFIv14YPTGgcrsxSjLWAhJktDvsOPZI7tgcU5/c0Co5cXPwxMVtwAAGkxd+PxcI8wuBywuxxVHjiJjaBAJbMm8dGxdUQl9sPvtcWMrXqk7OL69tLAMWzdvG2/BMaan7zze+Ozv+KLm8tN5kX78RC9uuH/8dctAN14+eXDagJ1N9y2rQEVmwaSfvdF4FAemuaEgUihjDIlPh7sIIppen8OGQx3fQFJISDXEwzRsRW2wVcjN5T/Co1t+hxj96DRkR08rjH3nYdDFIDEuGdcuKYcuyoD6b6bvqHvX+q148I4nIvb4jPnZsE54INTGRStgtA3izaZj+KClGi4BprIbes9j0GlHjEYHnVoDlUKJRlMX2i1Xv5XMbOFIgyhCKBUKJEXHwGQf/aJUqzR49uEd2Fe9G/85+Ob4fmqVBmuv24Ctt26DSqlGe/dZvL77b2hpb4RWrUFJwWpUXbcBBdlL0G824ePD70Xs8U+98BBOt4+uPUmPSYDRNvvrMeYahgZRBFOrNPDMsA6gtLAMD9z2GOYlLJh2u8M5jN+/8ms0tdZF7PHP7HhsPDRodjA0iL7D1CoNNq25E6uLv4fctHx4vB6YBntwtOEL7PriLQyPXL7PU6QfT1cfQ4OIiGQToo0IERFFBoYGERHJxtAgIiLZGBpERCQbQ4OIiGRjaBARkWxCdbmdyY03rMeClAxYrEPY+/lO+L9jrYaJiCKF8CONrKxrsCAlA4FAACdOfMnAICIKI6FDQ6vRomT56IOEzpxtwuBQf5grIiKa24QOjZKSMmg1UbAP29DYdDLc5RARzXnChkbqgkxkZeYBAGpqDsMnQJtjIqK5TsjQUKvUWLmyHADQ1v4NTH3dYa6IiIgAQUOjqHgVonV6jDhHUN9wPNzlEBFRkHChkZSUgvy8xQCAk7VfweOO3GfpEhF91wi1TkOhUGJVaQUACeeNbeju7hjflpaahfKyKgDAex+8Br/fF6YqiYjmLqFCo3BxCWJj4uF2u1FXd3TyRkmCJAk3MCIimlOE+RaOi0vE4oJiAEB9/TE4nSNhroiIiC4lTGgUF5VCoVDA1NeD9s4z4S6HiIimIcz0lEYTBQBwOIZhMMRO2a6L0s12SUREdAlhQmNMTnY+crLzw10GERFNQ5jpKSIiEp8wI419+3dddntaWjYqytbOUjVERDQdjjSIiEg2hgYREcnG0CAiItmk1JT8QLiLICKiyMCRBhERycbQICIi2RgaREQkG0ODiIhkY2gQEZFsDA0iIpKNoUFERLIxNIiISDZhGhaGW3yUHkpJgt3jhMvrDXc5RERCYmgEPVBahdz4eQgggC7LID5ta0C18Vy4yyIiEgqnpy4hQUJmXBK2llRibe7ScJdDRCQU9p6aQCkpkB6TgHuWlSMnbh6cXg9+9dm/4PX7wl0aEZEQhJmeKly8HEVLS6+4n81uwZ5P3g1JDb6AH53WAbzbXI3Hyn6IKJUaKfpYGG1DITkfEVGkEWZ6SpKkcJcwzuZ2XnwjUF1EROEmzEhDkkbzy2IdwvHqgzPu5/OFfqpIp1KPvx7xuEN+PiKiSCFQaIz+Re/1emE2D4a1Fp1aM/56xMvQICIaI8z0lEIxWkpAgIvOOtVoaAQQgNPrCXM1RETiECY0xkYaItzKpVYqAQBevw+BgAgVERGJQaDpqbGRhh8qlQpLClcgMyMXUVHR8Hjc6Ou/gOZTdbBYQj91ZXWNAABUkhJqhRIeAUY/REQiEGekobh4l9KNFetRsKgY0dEGKBQKaLVRyEjPwbqqW5CSkhbyWs4MXIDF5YAkSbh9yWrEanXgPVRERAIt7itdUYG8vAIEAgEMO+w4daoWZssQoqJ0yEjLRm5uAQDA6XRg95534POFtj9UZlwS7iuuQGZs0pTbgd9oPIoDHc0hPT8RkYiEmZ6yWIfQc6ELfp8PNbWH4XJdXCtx4UIX7MN2FBeVIioqGulpWeg8H9q+UCa7Ba1DJkSro5AcbQjpuYiIIoUwI40rUSgU2LTxXqjVapxtbUZt3dGQnu+R63+AgqRUtPR3Y/eZOpjdI+MXxe1uJ9dvENGcJMxI40r8fj9sdgsSE5Kh1epCeq6s2CQUJKUCAF6uPTB5hTgR0RwmzIVwObzBv+6VitCWnWKIAwB4/D4GBhHRBBEVGqrgSm1fiG+BVQQvfCsi6+MhIgo5YaancnIWQpIUMJsHMDTUP2W7QiHBYIgFADgcjpDWMhJcBa5USNAoVXCH+E4tIqJIIUxo5F9TiIT4ZNhsFuzdtxPeSx65ujC/CJrgSKPX1BXSWia2DtGpNAwNIqIgYeZfTrXUAwBiYuJQtWYjsjLzEBeXiPnz07CypBzLilcBAAYGTOjt7Q5pLc4Jd0Zp1erL7ElENLcIM9IwGjvQfKoWSwpLEBefiNXXVU7Zx2IdwpFj+0Jei3vCNROtUpiPiIgo7IT6RmxqrsWFXiMWXrMEyckp0Gp18Pl9sFrN6OpqQ+u5lpCvBAeAFH3s+Gsn12MQEY0TKjSA0emngQHTrJ83UWeATq1BekwCbi0Yfexsn8OGPodt1mshIhKVcKERLj9b+X3kxs8bf+8L+PHvxq/CWBERkXgYGhP4A37Y3E6cGezFnrP16LKG9wmCRESiiZjeU0REFH7C3HJLRETiY2gQEZFsDA0iIpKNoUFERLIxNIiISDaGBhERycbQICIi2RgaREQkG0ODiIhkY2gQEZFsDA0iIpKNoUFERLIxNIiISDaGBhERycbQICIi2RgaREQkG0ODiIhkY2gQEZFsDA0iIpKNoUFERLIxNIiISDaGBhERycbQICIi2RgaREQkG0ODiIhkY2gQEZFsDA0iIpKNoUFERLIxNIiISDaGBhERyfZfgOLTjTPuvvQAAAAASUVORK5CYII=;" vertex="1" parent="1">
          <mxGeometry x="240" y="180" width="397" height="345" as="geometry" />
        </mxCell>
        <mxCell id="PchYVLzbuXAZp6eYA2In-2" value="If function need data, we just declare that in the global and pass in" style="text;html=1;strokeColor=none;fillColor=none;align=center;verticalAlign=middle;whiteSpace=wrap;rounded=0;fontFamily=Comfortaa;fontSource=https%3A%2F%2Ffonts.googleapis.com%2Fcss%3Ffamily%3DComfortaa;fontSize=24;" vertex="1" parent="1">
          <mxGeometry x="293.5" y="570" width="290" height="30" as="geometry" />
        </mxCell>
        <mxCell id="PchYVLzbuXAZp6eYA2In-3" value="" style="shape=image;verticalLabelPosition=bottom;labelBackgroundColor=default;verticalAlign=top;aspect=fixed;imageAspect=0;image=data:image/png,iVBORw0KGgoAAAANSUhEUgAAAlcAAABKCAYAAACW7HHoAAAABHNCSVQICAgIfAhkiAAAABl0RVh0U29mdHdhcmUAZ25vbWUtc2NyZWVuc2hvdO8Dvz4AAAAtdEVYdENyZWF0aW9uIFRpbWUARnJpIDI1IE1hciAyMDIyIDEwOjUzOjM2IEFNICswN4UNdJ0AACAASURBVHic7Z13YFRV9vg/M5NeSUiZ1ElvtIQSei9KExVBQRddFSwru6yKa10FhfUr7i7Kyi67PyuCbixYwEUJHaQFSKEkgfSekJ6QNjP5/TGkDDMTUmaSAPfz17x3333vvDf3vXPuueeeK/FwD2pGIBAIBAKBQGAUpH0tgEAgEAgEAsGthDCuBAKBQCAQCIyIMK4EAoFAIBAIjIgwrgQCgUAgEAiMiDCuBAKBQCAQCIyIzN7O+Y2+FkIgENxaWJhb8tH6XTw47wlAwoXLZ/taJIGg05iZmfP7Z15j8qQ7AMjJyehjiQQ3G8JzdQthY2+PV0gIVnZ2fS2K4DYneuhEbKxsATh0ancfS3P7cP/sx9m2IZZP//ITE0bM6GtxblpCgiOwtLQE4PyF26NjIPSHcTHrawEExkEeGMDyv27AwsqS+tpa/rlyFWX5BX0tluA2ZcqoOQBcTE+kqDS/j6W5PZBKZdw78yGkUhkW5pYsmPYgR07H9rVYNyWDBw8HIDc3k4qKsj6WxvQI/WF8hOfqFsF/6BAsrDQ9LStbWxQREb127cCoSN7cvZM3d+/ExsGh1657u+M6wIq0mIWkxSzkt3ODWvd///Y00mIWsvW1iX0il5OjC0NCRwBw8OSNvVZDQkfy1cbDfLXxMPa2jqYWz+j0F/nVahXJGUmt20mpp016vf7a/nqKnZ09fgrN/SSdvz28VkJ/GB/hubpFSD52nFFz7sTFy4vC9AxS40z7YRUIDDFpxCykEimNTQ0ci9/X1+LcVqzdvAofuT9KZRO5RVl9Lc5NyaCIKCQSCUplEykpiX0tTq8g9IfxEcbVLUJ5YRHvL3+qr8UQCJgcfScAp5IOc7W+to+lub1QqVRk5l3uazFuagYPigLg0qWLNDQ09LE0vYPQH8bnlh4WNDezYHT0JMLDh/a1KALBbUGgTxg+cn8ADpz8Xx9LI+ivzJwxH3//YJNeozvff7ncGxcXdwCSzgvvTX+lN9pPT7klPVcymRmRw0YxdsxUbG3t2BP7o97jJBIJw6ZNJWrmdOSBAVjb2tLcDNVlpaScOMXhmK+pKC7u8Fq2jo6Mu3cBoaNH4+zhjkQipaywkJTjJzjy9Q6uVlXprWfj4MBLMdsB+Pujy2lqbGTag0sIHjkCOycnqkrLuHj0Vw588SV11TV6z/HcZx8xwM1Nb9ma+feibGo0KPdDa18nNHoUB7/4L/u2bmPsPQsYPmsmTh7uNNU3kBafwL7PtnElN1en7th7FjDnieV6z9tyT+1JPnacbWveMihLT5DJZEwZNYcJI2ag8ArC1toOlUpJ0ZV8zl48wY7YrVTXVuqt6+cVxIbVH6NUNrF09XR85QHcPeNBIgKjcLBzpLiskNhjP7Dr4Feo1SqDMrg6yZk96T6iwkfj6ixHIpGQV5TN4dM/879DX6NUGa7bE+oala2/6xtV7fardfb1FlOuea3Kq0pJNBDzM3fyIh655/d6yz5at1Nn36mkw7zz4ct6j/f1DGL+1MUMCorCycEFpbKJgpJc4s4dZtfBr6mtqzYoq0QiYeLIWUyJno2fVzC21nY0q5spr7rC6fPH+H7vNkrKC00qf0/4auPhDss3fraGo2cMB7R39/5b6En7k8u9GR41ltzcTA4f2UO2EVMddPb7r48hgzVeq5qaarKy0jo8VuiPvtMfpmw/xuKWMq5kMilDhoxk3Nip2NtpAktraqopKdE/62HRSy8wZJJ20KUEcHR1JXreHIbPmsHW194gPUH/uLu7vz8Pr1uLvbOT1n43X1/cfH2JnDmDT196laLMjmMfbAcMYNGfVuPk3tbQndzdGHfv3YREj2LLqueor9H/ghiDBX9YyfA7ZrZum1tYMmTSREJGjuTjF18hLzXVZNfuCbbWdrz8xAZC/AZr7ZeaWeAt98Nb7sf4qOm8+PfllFde0anv6eoLQGFpPsPColn96DoszC3byt18WLbgdwwc4MonOzbplWFs5FR+t/RlLC2stPb7ewfj7x1MVPgY1m95XsfA+v3KV7G2sunUfZ48dZj9B3S9QDVXlTQpmzE3k1BZ3dS6v6JKM5RRVm3442gKzGQyxg/XTP8/FPdLhwapMZgyajZPPPACZrK2z5iZzKz12U8dPZc1m1dRWKL7gQdY9fAbjIucpr1TBi5O7twx4W6mjZnD+i2rOXfpjClvo8/o6f33pP1lZKQid/fE29uPJQ8sJysrjcNHfiEvP6fb99PV77+++uFhwwA4fzEetVrd4fFCf2joC/1hivZjbG4J40oqlTIoPJJx46czwFHTUGtqqjlx8iBn40+iUil16oSNGd36YqSdiefXb7+jrLAQqUyKPMCf6csewtnDgyWvv8rfH3lcpwchMzNj6Z9fwd7ZCWVjI4djvuby2XjUSiX+w4Yx6f77sHdy4sE3/symJ56mqYOx+0mLFtLUUM+Xb62nKDMbBxcXxi6YR9jYMbh4ezHrt4/ww6Z/6NTb9ue1yMzNW7f9hg7mzuWPdenZyQMDUAyKYOcH/yI9PgELKytCx0Qz6f7FWNpYc+9zq/jHk7+jubm5tU7i/oNkn7vQuu0dGsK8ZzTj9R+/+CoNtdpxNnUmerEfvnslIX6DUSqb2BG7lfjkk1TVVmJtacPwiDEsuuNRnAe4sGDaEr3Gkae7j0a++lpWLH6e7/Zu59czsdQ31hPqN5jH7vsjDnYDmD1xId/t3U5FValW/fCAofzhN68jk8nILcpiR+xWcgrSsbVx5I7xdzNm2GSGhIxk3tQlfBf7uUmeQUVNA64DrKiobVNkZdWatlZR3bvxIlER41pny3WU2+rI6ViS09tmtQX5hvP4omcBWLP5j9TVabcXfd4nhUcgTz7wJ2QyGQXFOXwT+xnZ+WlYW9owNDSau6Y9gIuTO8898iYvvPuoVvsFGDl4QqthkZhyip0HYiguzUcqlaHwCuT+2Y8jd/Fi9WPreebN+7W8n8aQ3xi8+Ffd3r9UKmX9H7fcsG5P7r893W1/R47uJTHxNOPGTWXI4BEoFIEoFE+Rlp7C4SN7KCrqfPqO7nz/9REQEIa1tabDc/5cxwa10B8a+kp/GLP9mIqb2riSICEsbCgTJkzH2ckF6PxLFRgVqTm+vJytf34DlbLt2OKsbHKTU5m9QtPQ3BW+ZCSd06ofMWEczh5yAL5c/zYpx0+2luWmpJKZmMhj776Dk9ydYdOnEveTYWXjGRzEe8ufpLGuHoArubmkx8fz8Lo3CRoRxbDpU9m5eTNqlXZPqjAzU2vbwdXF4DUMERo9io9ffJX0+PjWfXmXLlFTXs78Z57GTeGLd3gYORcutpbXVlRQW1HRum1lZ9smU3q6QVe2MbG2tGHSSE325A+/3Ujsrz9olWfkptLQWE9EYCS1dfqDqj1dFQAEKyJ4b+sarZxAv8bvo1HZyJ8e/wtSqYxgRQSnkrSHYR5b9CwymYzUzHO8vmklynbt7VxqHC+ueIcREWOZGj1Hx7j67LMPQNq5kMeGujqDZeXV15RbTWO7fZrf7ff1BlOiZwOaZ59dkG7wuMqaciprylu3bWzakhZm5V0yqMjbM3vSQmQyGRXVZby88QlqrrYZMBfSEsgpzGDVstfx8wpiUFCUjvdlSIgmVURFdRl/+fcLWv9dTmEGl7MusmzB7wDwkftzIa3t/TCG/MYgLSdZZ59MJutU3Z7cf3t60v6qqivY/fMOTpw4yLhx04kIH0ZgQCgB/iGkpl7gyK+xXLlSZLB+T77/+hgySJPbqqgon5IOrgtCf7TQl/qjp+3H1Ny0xlVgQCiTJ92Bq6umgWpeqkOcjT/RqZdKZqax2KtLy7RejBbKCgo6jBPyH6IJkizOytZ6MVrISU7hwpGjKAYPwjMwSKe8Pcd/2NX6Ymjt//4HgkZEYWFlyUBPL0pyjO/yLMzI1HoxWoj7aTd3rngMcwtLfK97OfoD3nK/VkWScFH3+QPsPBDDzgMxBs/R4rlKunRab7LFhOS281pZag/7BSsiUHgEArDlvxu0lFMLh+N+wd8zGPN2vcMWKirLdfZ1h3te2o9MKuFqQ9v1N8acZ/O3yTQqey/myt7GgeERY4HeCWQP9R8CwLH4fVqGVQtHz8SyfNFz2FrbEegbrmNcmcssACivLNX73xVeyTNJnFR/wVj3b4z2V15Rxq6fvuL48QNMGD+d0NAhhIYOIiQkgovJiRw8+DNV1RVadXr6/b8eaysbAgNDAUg6d+NAdqE/NPQH/dGd9tMb3LTG1bhx03B1lVNZWUHc6SNd7qkUZWgC4OQB/gyfOZ2E/QdQdUEZ2Tlphj9KcvTHcwDEvP1Op85lqNFfyW9zbba37o1JaZ5+96laraa8oAg3hS+2jv0vsVujsq1XPGnULHbEbutyjI+Hq8a4OpV45IbHVl73ckYEamIzCktyDXppjp6J7TCg2BjoCxpuUjbTpOeDb0rGj5iJmcwMpUrJERPfM9AaU1NSZjjguri0AH/vYL2JPbPyNekKFF6BTI2ezeHTv5hs4kF/xFj3b8z2V1pWwvc/fonr8QOMHT2F4JAIIsKHkZeXzZmzx7SO7en3/3rCw4chlcpQqdRcTL5xbiuhPzT0J/3RlfbTG9y0xhWASqUmIzOVrKy0Lr9YCfv2M2HxQga4uXHPc39k3sqnKcnOpSwvj6KsbDITk8i6cJFmA0GNUjPNo1M29nzopalet9cBUFlUwuevrwE6fgl7Qkfyt8wWkcr6XzPJzk8ntzATb7kfD8xZzl3TlpKdn0ZBSQ5Z+WkkJJ8ityjTYH0nh4Gta9+l5+oOr4AmluPDbzYCkJGTolXme81rlZF3yQh3c/PTMkvw7IVjVNWYvpcolWq8lssWPMOyBc90fKxEorPv8OlfWDBjKa5Ocp5e+jKPL3qOvKIsCkpyyCnM4MLleC6mJ9Hc3HFQ881Kf77/kpJCzl84i42NDQqFYa9NT77/19MySzA9I5mrV2+cm03oDw39UX90tv2Ymv6nNTtJbm4mHnJvIodFM2zoKFJSkjhydC+lZSWdql9/9Sr/efYF5j65grCxYzC3sMQzKBDPoEBa5p4VZ2UT8/aG1l5Kb6NsaiTlxKk+uXZ/p7lZzbotz7Ni8fMMC4vGxsqWsIChhAW05bQ5eiaWf2xfj1LZpFPf08239XeegUzWDY317D78jd4yT3ffa3WzuyX/AKeByCSdi7mqq7/aqQ9+X+HtriDQJwyAg3E3xyLNV+treXXj0zx67ypGDh6Phbkl/t4h+HuHtB6TU5jBxs/Wkp1/6yXl7K/3HxgYxoTx05G7ewGatl9aqhs309Pvf3sGOrsil3sDcK6Ty90I/dE/6Wz76Q1uWuNq/4H/kXTuDBPHzyA4OIKwsKGEhg7hwoUEjhzbS0V56Q3PUXXlCl+8tR4rOzu8w0Jw9fZmoJcnikGDkAf446bw5eF1a9n42HK9Y9qCvuVKeRHrt6zG3sYBP58QvN388PXwJzJ8NC5O7owfPoO8oiy++vkTnbqebpohwaqaCr0xOzeixTjryDvWEcseeqrHqRj6Cy2B7DVXqzl97tdevfYnO95n18GvulW3rLKEdz9+BVtre4IV4Xi6K/Bw9SbcfygKryB85P68+uS7/H7dEuobDE8quFnpT/cfFBjG+HZKsb6hnri4I5yKO0pjo+5MOWN8/1sYMkQT3F9fX8fly/q92PoQ+qP/0NX20xvctMYVwJUrRez4fhvu7p5MnDCTwIBQBg2KJDx8KOfPn+Xosb1UVt54iKK+pobLcWe4HNcW9Bo1awb3PrsKe2cnQkdHk3TgkFYd9bWYAjMLC+PeVC9jZqEbbN1aZq65N3UPXe6mpvpqFUkpcSSlxAGazMxrVm4iWBHBsLBoA8aVZqZgfnHXPU+Odk6tQ4qGcijdLkgkUiaO0MzaPHJmj97gaFPQEl9nZWHd43PV1lUTn3yS+HYTGKaOnsPTS17CyWEgIwaNN3nsXF/Sl/cfFBjG+HHTWj1HjY2NnD7zKydOHaahvmODzhjff4lEwqBwzcy/CxcTupWbTegPA2W9oD960n5MzU1tXLVQVJTP1998ipenDxMnzEShCGLIkBFERESRlBTH0WN7qanpmnfi7C+xzFnxOFZ2dji5u+uU15RrplsP9PI0eI7FL76AYvAgkk+c5MdNH3TtpnoJFwPyS2XS1qnCtZWmT61gTJqUjaRlXyRYEYHKQMxDy0xBQ0OCHWFt3RYcqm/IEWDEoHGsWLQapVrJ6g2/5ep1uY/e32SajPXdZUjwCCZF30F1TSXf7d3W6bipoaEjcB6gmcJ98GTvDQlW11TiaOeEl7ufSc6//8RPPHz3M9ha2+Pm7GGSa7Snu8/fVJj6/v38gpk8cWarUlQqmzh79gTHTx7s8hB4T77/CkUQdvaagOtz542XLFboD9PqD2O2H1NxSxhXLeTl5/BlzEf4+vgzccJMvL39iIyMpuRKkc5sgUc3vI2tgwPp8Qns+qdu0j0HFxcsbTVKtL5W98/KOn+OUXPvRO7vR9DI4Vq9FgCfsFAiJoxHZiYjP7X/Bj27+/sTMGyoThbh0fPntfaqcpJT9FVtRdnUZmBY2dmaPM/VojsfZWzkFPKLcnj341d0yi0trIi6lhbgctYFnXJoy86e1w3PVWVVGepmNVKJlMjwaLIKtJfJsLd15KG7nsZ5gAuH4/boGFb9DQ83H15+8t3WTOfBighee/93nao7eaRmSDCvOJvL2d2bbt3UbpkNWxv7TuWJSslIwlvux9jIKcTs/pDCK3la5QPsnVk6bwUSqZQ9R78nNfO8VvmalZuwt3UkKfU0H3/7ns75nR1dsbHS5K+6Wt9xx6w78renJ8+/uxjz/rvDxAkzkMu9UatVxCec4tjx/V3uAF9PV77/LQy5tkhzaVkJBQWd90IL/aGhr/SHKdqPsbmljKsWsnMy2PbFv/H3D2bihJl6jylKz2DMgvm4KXyxtLUmfs8+KktLMTO3QO6vYPLSB5BIJKhVai6f1u3RnDt0hGm/eQhnDzlLX3uZg19+RXpCImqlioDIoUy6fxEyMxllBQUk7D9o9Hu0dxmIg5Oz1r6WngKAR3Ag6qY2d2xpQYHeJRDSzsaz5LWX2fPJZ6THJ2JpbU34+LFMXHQfAMXZ2TfMUVKUmYVKqURmZsbcp5/gyH+/prG+bZy7oriY2krjJVasqa3CR+6Pj9yfVcteJ/bYj5RWlmBuZomP3I8F05bgPtCTxqYG9vz6vU59M5kZbs6aZ5XfDc9VXcNVEpPjiAyPZsncJ7C2suPsxWMolUqCfMO5a/pS3JzlVNaU8/nOzT2+X1MT5j9EawmZ0GvbNxris7a0IXqoJkt1T3JbZReko1QpMZOZ8ei9f+C72G00NLbFqJSUF+p4cv536BumRM/BzMyct1b9k//+9P+4nJ2MBAnBigjunvEgLk7uVNVU8PG37+tcMyv/MrMn3oeP3B8ba1sOntzd2oYUnv4snPUIEokElUpFvIE8aj2Rvz3dff49wZj33x3UKhWJSXEcPbrP6DmIOvP9B7CwsCQ4OAKAczfIyH49Qn9o6Cv9Ycr2YyxuSeOqhYyMS2RkXMLKUjcuY88nn+IVEoxPeBhRM2YQNWOG3nP8/OFHlBXo5tJRKZVsX7uOh9evxd7JiRkP/0bnmOrSMra98SZKEwTUjb1rPhMX32ewfMXfNmhtf/nWXzh/5KjOcRVFRVReKWX+M0/rlDXW1fPd397TWTrkeuprajgc8w1Tlt5PyMiRhIwcqVW+c/O/OPGD7oK23WXfiZ1MGzMXP68gxg+f0bqenZbsTQ28t3WtjkcDQO7i3TqVvzueK4CPdmzkTZ8PcLRzYuGsZSyctUyrvKS8kP/794uUVeiuadjfKLruGZVWFHdKsY+JnIqlhRXqZjWHTv3c7etfravh+73bWThrGVHhY4gKH6NV/uE3G3VmbWYVpLElZgNPLF6No50TKxav1jlvdW0l73z4kl7P4fad/ybQJ4wQv8FMGTWbKaNm65Xt8x83U1Ta8VIa3ZG/Pd19/vpo8TaB5h0whDHvvzt88+1WkwfJd/T9BwgNHYy5uQXNzc2cP68/A70hhP7Q0Ff6ozfaT0+R2ds5v9HXQpgafR8qlVJJ/N69VJeVY2Vjg5WtLTJzc9QqNTVl5Vw+c5Yf3/+ApIOGV56vraggPnYfarUKKzs7LG2saVapKc3P5/Tun/nmnb9SUax/arC5pSUTFy0EIH7vPsoLDSdD1EdgVCSKQRGdPv7coSOUZLclmxs6dQouXl4UZ2bz3cb3aKyvx8FlIBbWVjRcrSP5xEm+/r93KUg3vIxJezISErlaUckAd3es7OyQtlvaJfVUHHkpxlu8U6VScijuZ1QqJfa2jthY2yKTymhsaqCgJJcjp/ew6fM3dYaCWggLHMr4qOkolU189v1moOOXXx81tVUcObMHCzMrHOwGYGlhRUNjPZl5l/jfoa/4YPt6Siu7Pi28LygpL8LSwhofuT9lFcVs/uLtDpNztvDbe/+Aq7Occ6mn2X3k2x7JcO7SGaqqK3AdKMfW2l6r/Zy9eFzvkGNm3iXizh/B0twKOxt7LCysqK2rJqcwg58OfcPm7espMDDhQKlScujUbiqqS7G2ssPGyhZzM3NUahUVVWXEp5zk/331LkfP7jOZ/C109/nrY1BQFBNHzgJgx56tWsv0tMfY999VemviQ0fXmjF9Po4OA8jOTu9ykkmhP/pWf/Rm++kuEg/3oK5rFsFNz0NrXyc0ehQJ+w7w9Tvv9rU4gpsMN2c5/3gtBolEwqbP3+RQ3C99LdJtj4W5Jeuf3YLCI5DCklxWrlvS1yL1WxwdB/DE8tVIJBJ27orh/IWuea5ud4T+uDG39LCgQCAwDZNH3YlEIqG+oY4TiYduXEFgVHzk/q150qRSGZ5uvsybshgfuT8A23fqBlkL2hg8aDgSiYTGxkZSU/VPehEIeoIwrgQCQZeZNEqz3M2xhANawduC3uGpJS8SrNAd1lE3q9n+4xaOJRzofaFuIgYNGg5ASuo5mpQ9X4JGILgeYVwJBIIus/KtB/paBME1VCoVldXlXEg7y84DMaTldD7L+O3Kv/8jhrIEpkXEXAkEAoFAIBAYkc6tHCsQCAQCgUAg6BTCuBIIBAKBQCAwIsK4EggEAoFAIDAiwrgSCAQCgUAgMCLCuBIIBAKBQCAwIrfF8jcCgaB3sTC35KP1u3hw3hOAhAuXz/a1SAJBr2EuNeOvsx7knjDNOnmp3VzOSHDzIjxXtxA29vZ4hYRgZWd344MFAhMSPXQiNla2ABw6tbuPpRF0lvtnP862DbF8+pefmDBC/2LEghsT6eGLtZk5ACfyLvexNL2D0D/aiCSitwjywACW/3UDFlaW1NfW8s+VqyjLL+hrsQS3KVNGzQHgYnoiRaX5fSyNoDNIpTLunfkQUqkMC3NLFkx7kCOnY/tarJuSsV7BAFwuL6LkanUfS2N6hP7RRXiubhH8hw7BwsoSACtbWxQRnV/xvKcERkXy5u6dvLl7JzYODr123dsd1wFWpMUsJC1mIb+dG9S6//u3p5EWs5Ctr03sE7mcHF0YEjoCgIMnb+y1GhI6kq82HuarjYext3U0tXhGpyfyhwcMZdWy1/nXmm/54q/7+fTt3axb9U/mTl6EuZmFiSTWj1qtIjkjqXU7KfW0Sa/XX9tvT3G0siHcxROAYzm3h9dK6B9dhOfqFiH52HFGzbkTFy8vCtMzSI0z7YdRIDDEpBGzkEqkNDY1cCx+X1+L0y+RSCQ8cs/vmTPpPq39ZjIzQvwGE+I3mMmj7mTNB6uores9z8fazavwkfujVDaRW5TVa9e9lRjtGYhEIqFJreRMQXpfi9MrCP2jizCubhHKC4t4f/lTfS2GQMDkaM2izqeSDnO1vraPpemfzJ/6QKthdSnrArsOfkVBcQ4O9gOYPPIOJoyYib93CCvuf56/f/J6r8mlUqnIvE1ihEzFGG+NFy6+MJs6ZVMfS9M7CP2jyy1tXFnIzJiiCKe8vpZT+bdHD0Ig6EsCfcLwkfsDcODk//pYmv6JmUzGPTN+A0Biyine+tdzNDe3LfEaf/EEtXW13DHhbsZFTuPTAZsoq7jSV+L2Sx4YNIbE4hwulOSZ7Brd0R8KRxc87Z0AOJZ7yWSyCXpGb7SfW9K4MpPKmOgbyuygYThYWvPlueN6j5NIJAybNpWomdORBwZgbWtLczNUl5WScuIUh2O+pqK4uMNr2To6Mu7eBYSOHo2zhzsSiZSywkJSjp/gyNc7uFpVpbeejYMDL8VsB+Dvjy6nqbGRaQ8uIXjkCOycnKgqLePi0V858MWX1FXX6D3Hc599xAA3N71la+bfi7Kp0aDcD619ndDoURz84r/s27qNsfcsYPismTh5uNNU30BafAL7PtvGldxcnbpj71nAnCeW6z1vyz21J/nYcbatecugLD1BJpMxZdQcJoyYgcIrCFtrO1QqJUVX8jl78QQ7YrdSXVupt66fVxAbVn+MUtnE0tXT8ZUHcPeMB4kIjMLBzpHiskJij/3AroNfoVarDMrg6iRn9qT7iAofjauzHIlEQl5RNodP/8z/Dn2NUmW4bk+oa1S2/q5vVLXbr9bZ11tMuea1Kq8qJdFAzM7cyYt45J7f6y37aN1OnX2nkg7zzocv6z3e1zOI+VMXMygoCicHF5TKJgpKcok7d5hdB7/ucEhNIpEwceQspkTPxs8rGFtrO5rVzZRXXeH0+WN8v3cbJeW6U+h7Kr+fVwh2NvYAfLdvu5Zh1cIvv37PHRPuBiDQJ5yyisMG76O7fLWx43Nu/GwNR88YDmjv7vNroSftVzHAlSl+EVwuL+KH5NNGTXXQWf2hj7HXvFaV9XUkX+k4oFvon77TP6ZsPy3cUsaVTCplnE8wc4MiGXBtGnhlfR151WV6j1/00gsMmaQdNCkBHF1diZ43h+Gz3COsbAAAFxJJREFUZrD1tTdIT0jUW9/d35+H163F3tlJa7+bry9uvr5EzpzBpy+9SlFmx7ELtgMGsOhPq3Fyb2uoTu5ujLv3bkKiR7Fl1XPU1+hv4MZgwR9WMvyOma3b5haWDJk0kZCRI/n4xVfIS0012bV7gq21HS8/sYEQv8Fa+6VmFnjL/fCW+zE+ajov/n055ZW6PX9PV18ACkvzGRYWzepH12FhbtlW7ubDsgW/Y+AAVz7ZsUmvDGMjp/K7pS9jaWGltd/fOxh/72CiwsewfsvzOgbW71e+irWVTafu8+Spw+w/oOsFqrmqpEnZjLmZhMrqtuGHiqoGAMqqDX/cTIGZTMb44Zrp+4fifunQIDUGU0bN5okHXsBM1vYZM5OZtT77qaPnsmbzKgpLdD/QAKsefoNxkdO0d8rAxcmdOybczbQxc1i/ZTXnLp0xqtwFJbm89v7vAEjLTtZ7TFW7b1b7Ntmf6Onz60n7PV+Si6/jQIKc3Hl27BySr+TzQ8pp0itKun0/XdUf+uqP9AwA4ET+ZdTN6g6PF/pHQ1/oH1O0n+u5JYwrqUTKaM9A5oZE4WKjybFRWV/Hz+kJHM5KoUnPRz5szOjWhp12Jp5fv/2OssJCpDIp8gB/pi97CGcPD5a8/ip/f+RxnR6AzMyMpX9+BXtnJ5SNjRyO+ZrLZ+NRK5X4DxvGpPvvw97JiQff+DObnniapoYGg/JPWrSQpoZ6vnxrPUWZ2Ti4uDB2wTzCxo7BxduLWb99hB82/UOn3rY/r0Vmbt667Td0MHcuf6xLz04eGIBiUAQ7P/gX6fEJWFhZETommkn3L8bSxpp7n1vFP578nVbvOnH/QbLPXWjd9g4NYd4zmvH2j198lYZa7TibOhO9mA/fvZIQv8EolU3siN1KfPJJqmorsba0YXjEGBbd8SjOA1xYMG2JXuPI091HI199LSsWP893e7fz65lY6hvrCfUbzGP3/REHuwHMnriQ7/Zup6KqVKt+eMBQ/vCb15HJZOQWZbEjdis5BenY2jhyx/i7GTNsMkNCRjJv6hK+i/3cJM+goqYB1wFWVNS2KaKyak1bq6g23OZMQVTEuNbZch3ltjpyOpbk9LZZaUG+4Ty+6FkA1mz+I3V12u1Fn/dJ4RHIkw/8CZlMRkFxDt/EfkZ2fhrWljYMDY3mrmkP4OLkznOPvMkL7z6q4x0aOXhCq2GQmHKKnQdiKC7NRyqVofAK5P7ZjyN38WL1Y+t55s37tbyfPZW/tq6a5HT9CrMFV2d56+/Sio69F93lxb/q9v6lUinr/7jlhnV78vza0932uzP1LL/mXGJu8DDGeIUQ5uJJmIsnScW5/JB6mpzKUoN1de65G/pDH4PdfLC71sk6kdtx3JrQPxr6Sv8Ys/0Y4qY2riTACM8A5odE4X7to97ZlyIwKhKAmvJytv75DVTKNhd1cVY2ucmpzF6haSjuCl8yks5p1Y+YMA5nD80H8Mv1b5Ny/GRrWW5KKpmJiTz27js4yd0ZNn0qcT8ZVjaewUG8t/xJGuvqAbiSm0t6fDwPr3uToBFRDJs+lZ2bN6NWafeECjMztbYdXF0MXsMQodGj+PjFV0mPj2/dl3fpEjXl5cx/5mncFL54h4eRc+Fia3ltRQW1FRWt21Z2tm0ypacbdEUbE2tLGyaNvAOAD7/dSOyvP2iVZ+Sm0tBYT0RgJLV1+oOqPV0VAAQrInhv6xqtnD6/xu+jUdnInx7/C1KpjGBFBKeStIdRHlv0LDKZjNTMc7y+aSVKVVsbOpcax4sr3mFExFimRs/RMa4+++wDkHYuE0pDXZ3BsvLqa8qpprHdPs3v9vt6gynRswHNs8/uYJZUZU05lTXlrds2Nm1JB7PyLhlUxO2ZPWkhMpmMiuoyXt74BDXtcgldSEsgpzCDVctex88riEFBUTrekyEhmlQRFdVl/OXfL2j9dzmFGVzOusiyBRrvko/cnwtpbe+HMeS/ERFBUQDUN9SRnpPS4/PpIy1H12smk8k6Vbcnz689PWm/ZXU1bE08yu7LicwNjiLaK4Ahbt4MdvPibEEWO1PPkt/uf7qenugPfYz10gwJZleVkldt+Log9E8Lfal/etp+bsRNa1wNdvXhnvAReNk7A5qX4pf0RA5lJXfqpZBdy55bXVqm1bBbKCso6DBOyH/IUEDzIrRv2C3kJKdw4chRFIMH4RkYpFPenuM/7Gpt2Fr7v/+BoBFRWFhZMtDTi5KcnA7P0x0KMzK1GnYLcT/t5s4Vj2FuYYnvdY27P+At92tVBAkXdZ8/wM4DMew8EGPwHC2eq6RLp/UmS0xIbjuvlaX2sF+wIgKFRyAAW/67QUu5tHA47hf8PYMxb9e7a6GisvsvbXvueWk/MqmEqw1t198Yc57N3ybTqOy9mCt7GweGR4wFeieQPdR/CADH4vdpGVYtHD0Ty/JFz2FrbUegb7iOcWUu0+SQKq8s1fvfFV7JMxjnZWosLayYe20m4YG43TQ29a4HsjMY6/kZo/2WXK3mk4RD7L6cwPzQKIZ7+DPcw48ouYJT+Rl8lxJH2XXexJ7qj+uxNbdkyLXvybGcGweyC/2joT/on+60n85w0xpXc0Mi8bJ3prSuhr0Z57rc0yjKyABAHuDP8JnTSdh/AFUXlJGdk6anU5KjP54DIObtdzp1LkON9kp+W2br9ta5MSnN0589W61WU15QhJvCF1vH/pOYrYVGZVuvdtKoWeyI3dblGB8PV83H8FTikRseW1ldobUdETgMgMKSXINemqNnYjsMCDYG+oJ+m5TNNOn5YJuS8SNmYiYzQ6lScsTE9wxgb3ft/esgELW4tAB/72C9iT2z8jXDNgqvQKZGz+bw6V9MNvGgqzy2cBVOji7U1lXz7c+f9rU4ejHW8zNm+y2sreQ/Zw7gZZ/InUFDiZQriPYKIL28mANZF7SO7an+uJ5RnoHIJFJUajVxnZhZKPSPhv6kf7rSfjrDTWtcAajUai6U5JJypaDLL0bCvv1MWLyQAW5u3PPcH5m38mlKsnMpy8ujKCubzMQksi5cpFmtPyhRaqZ5dMrGng+9NNXr9hoAKotK+Pz1NUDHL1FP6Ej+ltkeUln/aybZ+enkFmbiLffjgTnLuWvaUrLz0ygoySErP42E5FPkFmUarO/kMLB17bv0XP1BxVKplA+/2QhAxnVDM77XvFYZeWK6NbTNEjx74RhVNRU3OLrnSKUar+WyBc+wbMEzHR8rkejsO3z6FxbMWIqrk5ynl77M44ueI68oi4KSHHIKM7hwOZ6L6Uk03yAo2dgsnLmMqaPn0tzczL++/D/Kq3oe+2EK+uvzA8irLuNk3mXsLawIu5YpXR890R/XM9ZH4x06V5JDdaP+73l7hP7R0B/1T2fbz43of1qzk1wuK8LP0YWJvmFM8A3lTEEGP6acpbCT8Q71V6/yn2dfYO6TKwgbOwZzC0s8gwLxDAqkZe5ZcVY2MW9vaO1l9DbKpkZSTpzqk2v3d5qb1azb8jwrFj/PsLBobKxsCQsYSljA0NZjjp6J5R/b16PUk8jP08239XeegUzUDY317D78jd4yT3ffa3WzuyX/AKeByCSdi7mqq7/K1av9Nxmnt7uCQJ8wAA7G3RyLNF+tr+XVjU/z6L2rGDl4PBbmlvh7h+DvHdJ6TE5hBhs/W0t2fu8k1XxgznIWzloGwLadWziecLBXrtsd+uPzAxji7sP84Ch8HTXxP7VNDRToiZvpqf5oj9xuAIpr1zveyQSsQv/0TzrbfjrDTWtcfXPxJMdyLjE/ZDiRHr6M8AhguNyfk/np7Lx0lpLaGwe1VV25whdvrcfKzg7vsBBcvb0Z6OWJYtAg5AH+uCl8eXjdWjY+tlzvmLSgb7lSXsT6Lauxt3HAzycEbzc/fD38iQwfjYuTO+OHzyCvKIuvfv5Ep66nm2ZIsKqmQm/Mzo1oMc468o51xLKHnupxKob+Qksge83Vak6f+7VXr/3JjvfZdfCrbtUtqyzh3Y9fwdbanmBFOJ7uCjxcvQn3H4rCKwgfuT+vPvkuv1+3hPoGw5MKeoqZzIwn7/9Ta2b77Tv/zfd7t5nsesaivzw/gKFuPswLaVOKdU2NxGacY2/Geer1dK6MoT9aaMltVdvUSGJh5+OShP7pP3S1/XSGm9a4AsivKWfLmb34OA7krpARDHHzZrRXICM9AjiRd4ldl+Ip7UQgWn1NDZfjznA5ri3oNWrWDO59dhX2zk6Ejo4m6cAhrTrqazEBZha9u7iqsTGz0A22bi0z19ybWk/Aan+i+moVSSlxJKXEAWBuZsGalZsIVkQwLCzagHGlmSmYX9x1z5OjnVPrkKKhHEq3CxKJlIkjNLM2j5zZoze42RS0xNdZWVj3+Fy1ddXEJ58kvt0Ehqmj5/D0kpdwchjIiEHjTRY7Z2/jwPOPrScicBgqlYotMRvYf2KXSa5lKvry+Q1182FuSFSr56hBqWRf5nl+SU+iroMklmAc/SGRSBh9bZbgqfw0VN0YBhX6x0BZL+ifnrSfG3FTG1ct5FSW8sGpXwgY4MpdoSMIc/FknE8Io72COJpziV2Xz1BZ37We09lfYpmz4nGs7OxwcnfXKa8p17iPB3oZHpNd/OILKAYPIvnESX7c9EHXbqqXcDEgv1QmbZ3qW1tp+tQKxqRJ2Uha9kWCFRGoDMQstMwUNDQk2BHW1m3BnfqGHAFGDBrHikWrUaqVrN7wW65e95F+f5NpMtZ3lyHBI5gUfQfVNZV8t3dbp+OmhoaOwHmA5sN08GTvDQlW11TiaOeEl7ufSc6//8RPPHz3M9ha2+Pm7GGSa3i4+fDy8neQu3pTV3+Vv37yKgnJ3RuG6e7/ZypM/fwiXL1YEDqiVSk2qZUczEzm57TETsU8tacn+iPcxZMB1zzQx4243I3QP6bVP8ZsP4a4JYyrFtIrSth4YjchznLuCh1OkLOcSYpQ8qvLdaL9H93wNrYODqTHJ7Drn7pJ8xxcXLC01SjR+lrdeJes8+cYNfdO5P5+BI0crtXrAPAJCyViwnhkZjLyU/tv0LO7vz8Bw4bqZAEePX9ea68oJ7njPDvKpjYDw8rO1uR5rhbd+ShjI6eQX5TDux+/olNuaWFF1LW0AJcNzPJoyc6e1w3PVWVVGepmNVKJlMjwaLIK0rTK7W0deeiup3Ee4MLhuD06hlV/w8PNh5effLc103mwIqI1g/iNmDxSMySYV5zN5ezuTZduatdDtLWx71SeqJSMJLzlfoyNnELM7g8pvKK9RtgAe2eWzluBRCplz9HvSc08r1W+ZuUm7G0dSUo9zcffvqdzfmdHV2ysNPmrrtZ3PGzcHfkHBUWx+rF12FrbU1ZxhfX/WU1WNxdM7sn/112M+fy6w/yQ4SgcXVA1qzmcncL/Lsd3uQN9PV3RHy2Muea1KqytJLML6z8K/aOhr/SPKdrP9dxSxlULqWWFvHvsJyJcvbgrdLjeY4rSMxizYD5uCl8sba2J37OPytJSzMwtkPsrmLz0ASQSCWqVmsundZdvOHfoCNN+8xDOHnKWvvYyB7/8ivSERNRKFQGRQ5l0/yJkZjLKCgpI2G/8wFR7l4E4ODlr7Wux9AE8ggNRN7W5U0sLCvQuYZB2Np4lr73Mnk8+Iz0+EUtra8LHj2XiIk2eneLs7BvmGCnKzEKlVCIzM2Pu009w5L9f01jflpunoriY2sqeJ1Zsoaa2Ch+5Pz5yf1Yte53YYz9SWlmCuZklPnI/FkxbgvtATxqbGtjz6/c69c1kZrhdy4Cd3w3PVV3DVRKT44gMj2bJ3CewtrLj7MVjKJVKgnzDuWv6Utyc5VTWlPP5zs09vl9TE+Y/RGsJmdBr2zca4rO2tCF6qCbLdE9yW2UXpKNUKTGTmfHovX/gu9htNLTrPZaUF+p4Yv536BumRM/BzMyct1b9k//+9P+4nJ2MBAnBigjunvEgLk7uVNVU8PG37+tcMyv/MrMn3oeP3B8ba1sOntzd2oYUnv4snPUIEokElUpFvIE8at2V381ZzqtP/Q0zmRnZBel88t0mmtVqfD0C9J6/qrZSZ3WA9nT3/+sJxnx+3UGlVnE0J5Vdl+K7lYOoIzqjPwCszMyJlGvCCzqT26o9Qv9o6Cv9Y8r208ItaVy1cKEkjwslediY6a7NteeTT/EKCcYnPIyoGTOImjFD7zl+/vAjygp0c+molEq2r13Hw+vXYu/kxIyHf6NzTHVpGdveeBNlo/GTAI69az4TF99nsHzF3zZobX/51l84f+SoznEVRUVUXill/jNP65Q11tXz3d/e07uwbHvqa2o4HPMNU5beT8jIkYSMHKlVvnPzvzjxg+6Ctt1l34mdTBszFz+vIMYPn9G6np2W7E0NvLd1rY5HA0Du4t06lb87niuAj3Zs5E2fD3C0c2LhrGWts7xaKCkv5P/+/SJlXejN9hVF1z2j0oriTinmMZFTsbSwQt2s5tCpn7t9/at1NXy/dzsLZy0jKnwMUeFjtMo//GajzqzNrII0tsRs4InFq3G0c2LF4tU6562ureSdD1/S6zncvvPfBPqEEeI3mCmjZjNl1Gy9sn3+42aKSvXn4umu/FaWNq3GkK9HAH9+6u8dnv/H/V/y2feGh3W6+//po8XbBHSYvNSYz687bD61l6tK0yZX7Uh/AAz38MNCZkZzczMn8tL0HmMIoX809JX+6Y32c0sbVy3oe4iNdfV8uPpPjLjzDoZOmYy7vx+WNjaoVWpqKyrISU7m+Hc/kHnuvO4Jr1GUkcEHTz7Ttiq5pxwJEsqLirj46zGOfr2Dq9XGd4kbE5mZOTv+vpGS7GyiZk7HSe5OU0MjaWfj2b91e6ez8u79bCs1ZWVEz5/LQC8vZGadW0ajOzQ01vPqe0+xYNoSRg+bgoerN+ZmFjQ2NVBcWkBiyil2HYyh2ECCyZY0CkplE0WlHa9cb4iC4hxeePdR7p3xMFERY3B2dKGpqZHcokxOJBxg95EdWt6L/syFtAS+3/cFM8bOp7qmgn/9t3PJB1tmCZ5PPUNZZc8WPP3yp/9QXnmFOybeg4erj5YnxhD7T+wiIzeFeZPvZ1BwFAMcBlJXX0tRaT7HEw6y99gPBmeC1jfU8fqmZ5g+dj7jh8/E1yMAGytbVGoVVdUVpGSdY/ehr7mQlmAy+Y1Fd/8/fQT5hrf+Lr5i2Cgy9vPrKqZWjJ251ljvYABSSguoqO9aqhShfzT0lf7pjfYj8XAP6tgsFNySPLT2dUKjR5Gw7wBfv/NuX4sjuMlwc5bzj9dikEgkbPr8TQ7F/dLXIgl6iIW5Jeuf3YLCI5DCklxWrlvS1yL1WwZa2/HWtEVIkPBx/MEue65ud24H/XNbeK4EAoFxmTzqTiQSCfUNdZxIPHTjCoJ+hY/cvzXPmlQqw9PNl3lTFuMj9wdg+07dIGtBG2O8g5AgoUGp5Gxh1+M2Bbc+wrgSCARdZtIoTcLLYwkHbprhT0EbTy15kWBFhM5+dbOa7T9u4VjCgd4X6iZizLUhwdOFmTT28zyAgr5BGFcCgaDLrHzrgb4WQWAkVCoVldXlXEg7y84DMaTl6F9rU9DGa/u7tyqA4PZBxFwJBAKBQCAQGJHOrRwrEAgEAoFAIOgUXR4WDA0Z2qMLZuX03grptyL79/VsYdyp08YZSRKBQCAQCAT6EJ4rgUAgEAgEAiMijCuBQCAQCAQCIyKMK4FAIBAIBAIj0m9TMZibyXjlDwuwtDAj9sh59h42vAyAQCAQCAQCQX+h33quIkK9sbTQ2H5nk0QGXIFAIBAIBDcH/da4GjHED4DMnBLKKnRXtRcIBAKBQCDoj/RL48rB3oogPzcAzhjwWt3/you8siOGBatW9qZoXeKVHTG8siOGQRPG97UoAoFAIBAIeon/D68EpqzcLox2AAAAAElFTkSuQmCC;" vertex="1" parent="1">
          <mxGeometry x="770" y="340" width="599" height="74" as="geometry" />
        </mxCell>
        <mxCell id="PchYVLzbuXAZp6eYA2In-4" value="Back in the day, we do this for module, although the global variable inside is global to application, not file, so the test2 can easily overide test1." style="text;html=1;strokeColor=none;fillColor=none;align=center;verticalAlign=middle;whiteSpace=wrap;rounded=0;fontFamily=Comfortaa;fontSource=https%3A%2F%2Ffonts.googleapis.com%2Fcss%3Ffamily%3DComfortaa;fontSize=24;fontStyle=0" vertex="1" parent="1">
          <mxGeometry x="770" y="540" width="450" height="40" as="geometry" />
        </mxCell>
        <mxCell id="PchYVLzbuXAZp6eYA2In-5" value="Back in the day, there is very small JavaScript in the web page, so we just try to remember global variable name if we use module like this" style="text;html=1;strokeColor=none;fillColor=none;align=center;verticalAlign=middle;whiteSpace=wrap;rounded=0;fontFamily=Comfortaa;fontSource=https%3A%2F%2Ffonts.googleapis.com%2Fcss%3Ffamily%3DComfortaa;fontSize=24;" vertex="1" parent="1">
          <mxGeometry x="1230" y="570" width="380" height="5" as="geometry" />
        </mxCell>
      </root>
    </mxGraphModel>
  </diagram>
</mxfile>
